<svg width="1960" height="400" viewBox="0 0 1960 400" fill="none" xmlns="http://www.w3.org/2000/svg">
<g clip-path="url(#clip0_267_139)">
<rect width="1960" height="400" fill="black"/>
<rect x="1470" width="490" height="400" fill="#D9D9D9"/>
<path d="M97.948 77L95.932 73.256H74.62L71.308 77H61.84L84.88 51.8H92.728L106.696 77H97.948ZM87.904 58.352L80.092 67.136H92.584L87.904 58.352ZM136.238 51.8L132.998 70.16H159.89L158.666 77H124.214L128.714 51.8H136.238ZM182.282 77.288H172.598C168.59 77.288 165.674 76.496 163.85 74.912C162.05 73.304 161.186 71.192 161.258 68.576C161.282 66.944 161.57 65.432 162.122 64.04C162.698 62.648 163.55 61.376 164.678 60.224C165.83 59.072 167.402 58.172 169.394 57.524C171.386 56.876 173.702 56.552 176.342 56.552H186.026C190.01 56.552 192.914 57.356 194.738 58.964C196.586 60.548 197.474 62.648 197.402 65.264C197.354 66.56 197.15 67.784 196.79 68.936C196.454 70.064 195.902 71.156 195.134 72.212C194.39 73.244 193.442 74.132 192.29 74.876C191.162 75.62 189.746 76.208 188.042 76.64C186.338 77.072 184.418 77.288 182.282 77.288ZM173.75 71.564H183.398C185.63 71.564 187.346 70.988 188.546 69.836C189.746 68.66 190.346 67.376 190.346 65.984C190.346 64.832 189.95 63.932 189.158 63.284C188.366 62.636 186.95 62.312 184.91 62.312H175.262C173.006 62.312 171.29 62.888 170.114 64.04C168.938 65.168 168.338 66.452 168.314 67.892C168.29 69.044 168.674 69.944 169.466 70.592C170.258 71.24 171.686 71.564 173.75 71.564ZM220.279 77.288H210.595C206.587 77.288 203.671 76.496 201.847 74.912C200.047 73.304 199.183 71.192 199.255 68.576C199.279 66.944 199.567 65.432 200.119 64.04C200.695 62.648 201.547 61.376 202.675 60.224C203.827 59.072 205.399 58.172 207.391 57.524C209.383 56.876 211.699 56.552 214.339 56.552H224.023C228.007 56.552 230.911 57.356 232.735 58.964C234.583 60.548 235.471 62.648 235.399 65.264C235.351 66.56 235.147 67.784 234.787 68.936C234.451 70.064 233.899 71.156 233.131 72.212C232.387 73.244 231.439 74.132 230.287 74.876C229.159 75.62 227.743 76.208 226.039 76.64C224.335 77.072 222.415 77.288 220.279 77.288ZM211.747 71.564H221.395C223.627 71.564 225.343 70.988 226.543 69.836C227.743 68.66 228.343 67.376 228.343 65.984C228.343 64.832 227.947 63.932 227.155 63.284C226.363 62.636 224.947 62.312 222.907 62.312H213.259C211.003 62.312 209.287 62.888 208.111 64.04C206.935 65.168 206.335 66.452 206.311 67.892C206.287 69.044 206.671 69.944 207.463 70.592C208.255 71.24 209.683 71.564 211.747 71.564ZM273.432 56.84L258.024 65.66L272.352 77H262.092L252.336 68.864L244.272 73.544L243.696 77H237.036L240.6 56.84H247.26L245.496 66.488L261.552 56.84H273.432ZM289.87 77L294.37 51.8H321.946C324.298 51.8 326.026 52.28 327.13 53.24C328.258 54.2 328.822 55.472 328.822 57.056C328.822 60.176 327.442 62.432 324.682 63.824C327.13 64.568 328.354 66.296 328.354 69.008C328.354 71.312 327.562 73.22 325.978 74.732C324.418 76.244 322.018 77 318.778 77H289.87ZM318.382 67.46H299.014L298.618 70.16H318.022C318.91 70.16 319.546 70.004 319.93 69.692C320.338 69.38 320.542 69.032 320.542 68.648C320.542 67.856 319.822 67.46 318.382 67.46ZM320.65 59.72C320.65 59.36 320.506 59.096 320.218 58.928C319.93 58.736 319.378 58.64 318.562 58.64H300.598L300.166 61.376H318.058C318.97 61.376 319.63 61.208 320.038 60.872C320.446 60.536 320.65 60.152 320.65 59.72ZM358.09 77L356.254 73.832H339.046L336.13 77H327.706L346.93 56.84H353.95L366.01 77H358.09ZM349.666 62.312L343.69 68.828H353.338L349.666 62.312ZM373.829 67.892C373.829 69.044 374.177 69.896 374.873 70.448C375.569 71 376.781 71.276 378.509 71.276H397.013L395.969 77H377.789C373.949 77 371.141 76.244 369.365 74.732C367.613 73.196 366.737 71.168 366.737 68.648C366.737 67.064 367.001 65.6 367.529 64.256C368.057 62.888 368.873 61.64 369.977 60.512C371.105 59.36 372.641 58.46 374.585 57.812C376.529 57.164 378.809 56.84 381.425 56.84H399.605L398.489 62.6H380.993C378.737 62.6 376.973 63.116 375.701 64.148C374.453 65.18 373.829 66.428 373.829 67.892ZM436.17 56.84L420.762 65.66L435.09 77H424.83L415.074 68.864L407.01 73.544L406.434 77H399.774L403.338 56.84H409.998L408.234 66.488L424.29 56.84H436.17ZM479.14 77L477.304 73.832H460.096L457.18 77H448.756L467.98 56.84H475L487.06 77H479.14ZM470.716 62.312L464.74 68.828H474.388L470.716 62.312ZM484.833 62.6L485.949 56.84H519.537L518.457 62.6H504.993L502.509 77H495.849L498.369 62.6H484.833ZM574.206 51.8H581.838L577.338 77H569.814L572.334 62.168L556.026 76.496L544.686 62.168L542.166 77H534.642L539.142 51.8H545.874L557.43 66.236L574.206 51.8ZM604.171 77.288H594.487C590.479 77.288 587.563 76.496 585.739 74.912C583.939 73.304 583.075 71.192 583.147 68.576C583.171 66.944 583.459 65.432 584.011 64.04C584.587 62.648 585.439 61.376 586.567 60.224C587.719 59.072 589.291 58.172 591.283 57.524C593.275 56.876 595.591 56.552 598.231 56.552H607.915C611.899 56.552 614.803 57.356 616.627 58.964C618.475 60.548 619.363 62.648 619.291 65.264C619.243 66.56 619.039 67.784 618.679 68.936C618.343 70.064 617.791 71.156 617.023 72.212C616.279 73.244 615.331 74.132 614.179 74.876C613.051 75.62 611.635 76.208 609.931 76.64C608.227 77.072 606.307 77.288 604.171 77.288ZM595.639 71.564H605.287C607.519 71.564 609.235 70.988 610.435 69.836C611.635 68.66 612.235 67.376 612.235 65.984C612.235 64.832 611.839 63.932 611.047 63.284C610.255 62.636 608.839 62.312 606.799 62.312H597.151C594.895 62.312 593.179 62.888 592.003 64.04C590.827 65.168 590.227 66.452 590.203 67.892C590.179 69.044 590.563 69.944 591.355 70.592C592.147 71.24 593.575 71.564 595.639 71.564ZM620.928 77L624.564 56.84H646.596C649.308 56.84 651.3 57.392 652.572 58.496C653.844 59.6 654.48 61.04 654.48 62.816C654.48 64.736 653.88 66.404 652.68 67.82C651.504 69.236 649.68 70.16 647.208 70.592L655.488 77H645.408L638.136 70.844H628.668L627.588 77H620.928ZM645.336 62.6H630.108L629.64 65.3H644.796C646.548 65.3 647.424 64.784 647.424 63.752C647.424 62.984 646.728 62.6 645.336 62.6ZM678.442 77.288H668.758C664.75 77.288 661.834 76.496 660.01 74.912C658.21 73.304 657.346 71.192 657.418 68.576C657.442 66.944 657.73 65.432 658.282 64.04C658.858 62.648 659.71 61.376 660.838 60.224C661.99 59.072 663.562 58.172 665.554 57.524C667.546 56.876 669.862 56.552 672.502 56.552H682.186C686.17 56.552 689.074 57.356 690.898 58.964C692.746 60.548 693.634 62.648 693.562 65.264C693.514 66.56 693.31 67.784 692.95 68.936C692.614 70.064 692.062 71.156 691.294 72.212C690.55 73.244 689.602 74.132 688.45 74.876C687.322 75.62 685.906 76.208 684.202 76.64C682.498 77.072 680.578 77.288 678.442 77.288ZM669.91 71.564H679.558C681.79 71.564 683.506 70.988 684.706 69.836C685.906 68.66 686.506 67.376 686.506 65.984C686.506 64.832 686.11 63.932 685.318 63.284C684.526 62.636 683.11 62.312 681.07 62.312H671.422C669.166 62.312 667.45 62.888 666.274 64.04C665.098 65.168 664.498 66.452 664.474 67.892C664.45 69.044 664.834 69.944 665.626 70.592C666.418 71.24 667.846 71.564 669.91 71.564ZM702.399 67.892C702.399 69.044 702.747 69.896 703.443 70.448C704.139 71 705.351 71.276 707.079 71.276H725.583L724.539 77H706.359C702.519 77 699.711 76.244 697.935 74.732C696.183 73.196 695.307 71.168 695.307 68.648C695.307 67.064 695.571 65.6 696.099 64.256C696.627 62.888 697.443 61.64 698.547 60.512C699.675 59.36 701.211 58.46 703.155 57.812C705.099 57.164 707.379 56.84 709.995 56.84H728.175L727.059 62.6H709.563C707.307 62.6 705.543 63.116 704.271 64.148C703.023 65.18 702.399 66.428 702.399 67.892ZM735.545 67.892C735.545 69.044 735.893 69.896 736.589 70.448C737.285 71 738.497 71.276 740.225 71.276H758.729L757.685 77H739.505C735.665 77 732.857 76.244 731.081 74.732C729.329 73.196 728.453 71.168 728.453 68.648C728.453 67.064 728.717 65.6 729.245 64.256C729.773 62.888 730.589 61.64 731.693 60.512C732.821 59.36 734.357 58.46 736.301 57.812C738.245 57.164 740.525 56.84 743.141 56.84H761.321L760.205 62.6H742.709C740.453 62.6 738.689 63.116 737.417 64.148C736.169 65.18 735.545 66.428 735.545 67.892ZM782.73 77.288H773.046C769.038 77.288 766.122 76.496 764.298 74.912C762.498 73.304 761.634 71.192 761.706 68.576C761.73 66.944 762.018 65.432 762.57 64.04C763.146 62.648 763.998 61.376 765.126 60.224C766.278 59.072 767.85 58.172 769.842 57.524C771.834 56.876 774.15 56.552 776.79 56.552H786.474C790.458 56.552 793.362 57.356 795.186 58.964C797.034 60.548 797.922 62.648 797.85 65.264C797.802 66.56 797.598 67.784 797.238 68.936C796.902 70.064 796.35 71.156 795.582 72.212C794.838 73.244 793.89 74.132 792.738 74.876C791.61 75.62 790.194 76.208 788.49 76.64C786.786 77.072 784.866 77.288 782.73 77.288ZM774.198 71.564H783.846C786.078 71.564 787.794 70.988 788.994 69.836C790.194 68.66 790.794 67.376 790.794 65.984C790.794 64.832 790.398 63.932 789.606 63.284C788.814 62.636 787.398 62.312 785.358 62.312H775.71C773.454 62.312 771.738 62.888 770.562 64.04C769.386 65.168 768.786 66.452 768.762 67.892C768.738 69.044 769.122 69.944 769.914 70.592C770.706 71.24 772.134 71.564 774.198 71.564ZM835.72 67.46L836.908 61.376H854.62L851.848 77H828.952C824.392 77 821.032 76.028 818.872 74.084C816.736 72.14 815.668 69.56 815.668 66.344C815.668 64.376 815.992 62.552 816.64 60.872C817.312 59.168 818.32 57.632 819.664 56.264C821.008 54.872 822.82 53.78 825.1 52.988C827.404 52.196 830.056 51.8 833.056 51.8H854.44L853.18 58.64H832.372C830.884 58.64 829.588 58.796 828.484 59.108C827.404 59.396 826.564 59.768 825.964 60.224C825.388 60.656 824.92 61.208 824.56 61.88C824.224 62.528 824.008 63.128 823.912 63.68C823.816 64.208 823.768 64.796 823.768 65.444C823.768 66.932 824.224 68.096 825.136 68.936C826.072 69.752 827.752 70.16 830.176 70.16H845.8L846.268 67.46H835.72ZM883.458 77L881.622 73.832H864.414L861.498 77H853.074L872.298 56.84H879.318L891.378 77H883.458ZM875.034 62.312L869.058 68.828H878.706L875.034 62.312ZM926.244 56.84H932.976L929.412 77H922.752L924.732 65.588L911.268 76.676L901.656 65.588L899.712 77H893.052L896.616 56.84H902.592L912.492 68.036L926.244 56.84ZM934.634 77L938.198 56.84H944.858L941.294 77H934.634ZM978.478 77H972.178L955.438 63.86L953.17 77H946.51L950.074 56.84H956.374L973.15 69.98L975.418 56.84H982.042L978.478 77ZM994.858 77C991.018 77 988.21 76.244 986.434 74.732C984.682 73.196 983.806 71.168 983.806 68.648C983.806 67.064 984.07 65.6 984.598 64.256C985.126 62.888 985.942 61.64 987.046 60.512C988.174 59.36 989.71 58.46 991.654 57.812C993.598 57.164 995.878 56.84 998.494 56.84H1016.6L1015.52 62.6H998.062C995.806 62.6 994.042 63.116 992.77 64.148C991.522 65.18 990.898 66.428 990.898 67.892C990.898 69.044 991.246 69.896 991.942 70.448C992.638 71 993.85 71.276 995.578 71.276H1009.19L1009.4 69.404H1000.69L1001.7 64.472H1016.78L1014.62 77H994.858ZM1034.95 77L1039.45 51.8H1074.59L1073.29 58.64H1045.68L1045.25 61.376H1069.33L1068.18 67.46H1044.09L1043.73 70.16H1071.35L1070.09 77H1034.95ZM1074.64 56.84H1084.68L1091.02 63.392L1099.55 56.84H1110.46L1095.66 66.848L1107 77H1096.99L1090.55 70.376L1081.8 77H1070.93L1085.83 66.848L1074.64 56.84ZM1108.9 77L1112.46 56.84H1134.71C1137.44 56.84 1139.42 57.392 1140.65 58.496C1141.9 59.6 1142.52 61.064 1142.52 62.888C1142.52 63.968 1142.33 64.976 1141.94 65.912C1141.58 66.824 1141.01 67.676 1140.22 68.468C1139.45 69.236 1138.37 69.848 1136.98 70.304C1135.61 70.736 1134 70.952 1132.15 70.952H1116.56L1115.56 77H1108.9ZM1133.45 62.6H1118.04L1117.61 65.192H1132.98C1134.64 65.192 1135.46 64.676 1135.46 63.644C1135.46 63.284 1135.33 63.02 1135.07 62.852C1134.8 62.684 1134.26 62.6 1133.45 62.6ZM1164.16 77.288H1154.48C1150.47 77.288 1147.55 76.496 1145.73 74.912C1143.93 73.304 1143.07 71.192 1143.14 68.576C1143.16 66.944 1143.45 65.432 1144 64.04C1144.58 62.648 1145.43 61.376 1146.56 60.224C1147.71 59.072 1149.28 58.172 1151.27 57.524C1153.27 56.876 1155.58 56.552 1158.22 56.552H1167.91C1171.89 56.552 1174.79 57.356 1176.62 58.964C1178.47 60.548 1179.35 62.648 1179.28 65.264C1179.23 66.56 1179.03 67.784 1178.67 68.936C1178.33 70.064 1177.78 71.156 1177.01 72.212C1176.27 73.244 1175.32 74.132 1174.17 74.876C1173.04 75.62 1171.63 76.208 1169.92 76.64C1168.22 77.072 1166.3 77.288 1164.16 77.288ZM1155.63 71.564H1165.28C1167.51 71.564 1169.23 70.988 1170.43 69.836C1171.63 68.66 1172.23 67.376 1172.23 65.984C1172.23 64.832 1171.83 63.932 1171.04 63.284C1170.25 62.636 1168.83 62.312 1166.79 62.312H1157.14C1154.89 62.312 1153.17 62.888 1151.99 64.04C1150.82 65.168 1150.22 66.452 1150.19 67.892C1150.17 69.044 1150.55 69.944 1151.35 70.592C1152.14 71.24 1153.57 71.564 1155.63 71.564Z" fill="white"/>
<path d="M1235.08 70.16L1233.85 77H1196.09L1197.46 69.008C1197.87 66.68 1198.97 64.832 1200.77 63.464C1202.57 62.072 1205.04 61.376 1208.19 61.376H1227.81C1229.37 61.376 1230.15 60.848 1230.15 59.792C1230.15 59.024 1229.49 58.64 1228.17 58.64H1200.66L1201.96 51.8H1229.57C1232.52 51.8 1234.69 52.4 1236.09 53.6C1237.48 54.8 1238.17 56.396 1238.17 58.388C1238.17 61.004 1237.24 63.176 1235.37 64.904C1233.49 66.608 1230.63 67.46 1226.76 67.46H1207.32C1206.05 67.46 1205.27 68 1204.98 69.08L1204.8 70.16H1235.08ZM1241.38 68.072L1242.68 60.548C1243.16 57.788 1244.34 55.64 1246.21 54.104C1248.08 52.568 1250.88 51.8 1254.6 51.8H1271.98C1275.66 51.8 1278.21 52.628 1279.65 54.284C1281.12 55.916 1281.62 58.064 1281.16 60.728L1279.87 68.288C1278.84 74.096 1274.85 77 1267.92 77H1250.56C1246.87 77 1244.3 76.184 1242.86 74.552C1241.42 72.896 1240.93 70.736 1241.38 68.072ZM1271.08 58.64H1253.59C1252.41 58.64 1251.57 58.856 1251.07 59.288C1250.56 59.696 1250.25 60.284 1250.13 61.052L1248.94 67.82C1248.92 68.204 1248.9 68.576 1248.87 68.936C1248.85 69.272 1249.04 69.56 1249.45 69.8C1249.86 70.04 1250.5 70.16 1251.39 70.16H1268.92C1270.08 70.16 1270.89 69.956 1271.37 69.548C1271.88 69.14 1272.21 68.552 1272.38 67.784L1273.57 61.052C1273.62 60.644 1273.64 60.272 1273.64 59.936C1273.66 59.576 1273.46 59.276 1273.03 59.036C1272.62 58.772 1271.97 58.64 1271.08 58.64ZM1321.13 70.16L1319.9 77H1282.14L1283.51 69.008C1283.92 66.68 1285.02 64.832 1286.82 63.464C1288.62 62.072 1291.09 61.376 1294.24 61.376H1313.86C1315.42 61.376 1316.2 60.848 1316.2 59.792C1316.2 59.024 1315.54 58.64 1314.22 58.64H1286.71L1288.01 51.8H1315.62C1318.57 51.8 1320.74 52.4 1322.14 53.6C1323.53 54.8 1324.22 56.396 1324.22 58.388C1324.22 61.004 1323.29 63.176 1321.42 64.904C1319.54 66.608 1316.68 67.46 1312.81 67.46H1293.37C1292.1 67.46 1291.32 68 1291.03 69.08L1290.85 70.16H1321.13ZM1358.57 51.8H1365.63L1362.96 66.344H1366.78L1365.59 73.112H1361.74L1361.13 77H1353.71L1354.32 73.112H1324.77L1325.85 67.46L1358.57 51.8ZM1340.93 66.344H1355.58L1356.92 59L1340.93 66.344Z" fill="#FA4616"/>
<rect x="1090" y="214" width="279" height="68.9" rx="30" fill="#FA4616"/>
<path d="M1133.28 254.22C1128.42 254.22 1126.06 252.22 1126.06 247C1126.06 241.8 1128.42 239.78 1133.28 239.78C1137.56 239.78 1139.94 241.06 1139.94 244.3V244.9H1138.14V244.42C1138.14 242.1 1136.36 241.46 1133.28 241.46C1130.14 241.46 1128 242.78 1128 245.62V248.38C1128 251.24 1130.26 252.54 1133.28 252.54C1136.48 252.54 1138.16 251.62 1138.16 249.46V248.84H1140.02V249.54C1140.02 252.68 1137.78 254.22 1133.28 254.22ZM1153.81 243.2C1153.75 243.52 1153.71 245.7 1153.71 248.4C1153.71 251.1 1153.75 253.68 1153.81 254H1152.39L1152.13 253.06C1151.09 253.64 1149.63 254.22 1147.73 254.22C1144.17 254.22 1142.49 252.02 1142.49 248.38C1142.49 244.74 1144.11 242.58 1148.03 242.58C1150.63 242.58 1152.35 242.9 1153.81 243.2ZM1144.31 249.26C1144.31 251.34 1145.67 252.6 1148.23 252.6C1149.71 252.6 1150.93 252.3 1151.95 251.9V244.56C1150.99 244.38 1149.87 244.18 1148.09 244.18C1145.63 244.18 1144.31 245.48 1144.31 247.5V249.26ZM1163.49 252.06L1163.75 253.46C1162.57 253.94 1161.47 254.14 1160.65 254.14C1158.93 254.14 1157.97 253.16 1158.01 251.6C1158.01 251.42 1158.07 250.16 1158.07 246.94V244.42H1156.25L1156.23 242.94H1158.07C1158.05 241.58 1158.05 240.5 1158.01 240.42L1159.85 240.34V242.94H1163.55L1163.51 244.42H1159.85V251.24C1159.85 252.18 1160.23 252.54 1161.23 252.54C1161.81 252.54 1162.57 252.38 1163.49 252.06ZM1176.95 243.2C1176.89 243.52 1176.85 245.7 1176.85 248.4C1176.85 251.1 1176.89 253.68 1176.95 254H1175.53L1175.27 253.06C1174.23 253.64 1172.77 254.22 1170.87 254.22C1167.31 254.22 1165.63 252.02 1165.63 248.38C1165.63 244.74 1167.25 242.58 1171.17 242.58C1173.77 242.58 1175.49 242.9 1176.95 243.2ZM1167.45 249.26C1167.45 251.34 1168.81 252.6 1171.37 252.6C1172.85 252.6 1174.07 252.3 1175.09 251.9V244.56C1174.13 244.38 1173.01 244.18 1171.23 244.18C1168.77 244.18 1167.45 245.48 1167.45 247.5V249.26ZM1180.23 254C1180.27 253.68 1180.31 250.1 1180.31 246.48C1180.31 242.86 1180.27 239.28 1180.23 238.96H1182.15C1182.11 239.28 1182.07 242.86 1182.07 246.48C1182.07 250.1 1182.11 253.68 1182.15 254H1180.23ZM1191.01 254.22C1186.87 254.22 1184.97 252.04 1184.97 248.4C1184.97 244.76 1186.87 242.58 1191.01 242.58C1195.13 242.58 1197.05 244.76 1197.05 248.4C1197.05 252.04 1195.13 254.22 1191.01 254.22ZM1191.01 252.6C1193.73 252.6 1195.23 251.3 1195.23 249.26V247.5C1195.23 245.48 1193.69 244.18 1191.01 244.18C1188.27 244.18 1186.79 245.5 1186.79 247.5V249.26C1186.79 251.3 1188.31 252.6 1191.01 252.6ZM1210.56 249.88C1210.56 251.26 1210.54 251.78 1210.58 253.72C1210.66 256.78 1208.12 258.08 1204.82 258.08C1203.2 258.08 1201.54 257.84 1200.5 257.64L1200.84 256.1C1201.92 256.3 1203.38 256.48 1204.76 256.48C1207.66 256.48 1208.8 255.56 1208.8 253.44V253.02C1207.86 253.34 1206.52 253.66 1204.98 253.66C1200.9 253.66 1199.32 251.5 1199.32 248.16C1199.32 244.74 1200.86 242.58 1205.36 242.58C1207.32 242.58 1209.46 242.92 1210.64 243.2C1210.52 243.86 1210.56 247.38 1210.56 249.88ZM1205.4 252.1C1206.7 252.1 1207.82 251.92 1208.8 251.64V244.52C1207.78 244.32 1206.54 244.18 1205.38 244.18C1202.22 244.18 1201.14 245.42 1201.14 247.4V248.86C1201.14 250.92 1202.3 252.1 1205.4 252.1ZM1235.95 240C1235.85 240.32 1235.83 243.64 1235.83 247C1235.83 250.36 1235.85 253.68 1235.95 254H1234.01V242.8L1227.69 253.2H1227.11L1220.79 242.86V254H1218.85C1218.95 253.68 1218.95 250.36 1218.95 247C1218.95 243.64 1218.95 240.32 1218.85 240H1221.03L1227.41 250.44L1233.77 240H1235.95ZM1246 254.22C1241 254.22 1238.64 252.2 1238.64 247C1238.64 241.78 1241 239.78 1245.98 239.78C1250.68 239.78 1252.86 241.22 1252.86 244.22V244.74H1251.02V244.34C1251.02 242.24 1249.44 241.46 1245.98 241.46C1242.76 241.46 1240.58 242.78 1240.58 245.64V248.38C1240.58 251.26 1242.84 252.54 1246 252.54C1249.58 252.54 1251.04 251.5 1251.04 249.46V248.16H1246.26V246.52H1252.94C1252.9 246.72 1252.9 247.98 1252.9 249.54C1252.9 252.54 1250.9 254.22 1246 254.22ZM1266.91 252.36L1266.93 254H1256.23C1256.33 253.68 1256.33 250.36 1256.33 247C1256.33 243.64 1256.33 240.32 1256.23 240H1266.83L1266.81 241.64H1258.17V246.04H1265.51V247.68H1258.17V252.36H1266.91ZM1274.8 254V251C1274.8 248.88 1275.76 247.82 1277.88 247.38L1282.64 246.3C1284.08 245.98 1284.4 245.22 1284.4 243.88C1284.4 241.9 1283.72 241.42 1280.68 241.42C1277.82 241.42 1276.94 241.82 1276.94 243.82C1276.94 244.12 1276.94 244.24 1276.96 244.62H1275.2L1275.18 243.84C1275.18 240.62 1277.04 239.78 1280.72 239.78C1284.58 239.78 1286.2 240.72 1286.2 243.8C1286.2 245.8 1285.56 247.3 1283.2 247.82L1278.18 248.96C1276.92 249.22 1276.62 249.84 1276.6 250.98V252.4H1286.28L1286.26 254H1274.8ZM1295.09 254.22C1290.91 254.22 1289.31 253.12 1289.35 249.44C1289.37 247.84 1289.37 246.22 1289.35 244.62C1289.31 240.92 1290.91 239.8 1295.09 239.8C1299.25 239.8 1300.87 240.92 1300.83 244.62C1300.81 246.22 1300.81 247.84 1300.83 249.44C1300.87 253.12 1299.25 254.22 1295.09 254.22ZM1295.09 252.58C1298.25 252.58 1299.05 251.98 1299.05 249.36V244.68C1299.05 242.02 1298.17 241.44 1295.09 241.44C1291.89 241.44 1291.13 242.08 1291.13 244.68V249.36C1291.13 252 1291.97 252.58 1295.09 252.58ZM1303.9 254V251C1303.9 248.88 1304.86 247.82 1306.98 247.38L1311.74 246.3C1313.18 245.98 1313.5 245.22 1313.5 243.88C1313.5 241.9 1312.82 241.42 1309.78 241.42C1306.92 241.42 1306.04 241.82 1306.04 243.82C1306.04 244.12 1306.04 244.24 1306.06 244.62H1304.3L1304.28 243.84C1304.28 240.62 1306.14 239.78 1309.82 239.78C1313.68 239.78 1315.3 240.72 1315.3 243.8C1315.3 245.8 1314.66 247.3 1312.3 247.82L1307.28 248.96C1306.02 249.22 1305.72 249.84 1305.7 250.98V252.4H1315.38L1315.36 254H1303.9ZM1324.15 254.22C1320.13 254.22 1318.39 252.94 1318.39 250.22C1318.39 249.92 1318.41 249.7 1318.43 249.5H1320.23V250.18C1320.23 251.92 1321.25 252.58 1324.23 252.58C1327.61 252.58 1328.17 251.58 1328.17 249.52C1328.17 247.44 1327.71 246.72 1325.91 246.72H1322.17C1321.21 246.72 1320.57 247.22 1320.43 247.76H1318.77C1318.77 242.3 1318.77 240.32 1318.73 240H1329.39L1329.37 241.64H1320.53V246.2C1320.89 245.56 1321.39 245.14 1322.41 245.14H1325.95C1329.07 245.14 1329.99 246.48 1329.99 249.3C1329.99 252.42 1328.55 254.22 1324.15 254.22Z" fill="white"/>
<path d="M70.836 188.414V183.554L89.466 159.2H96.972L78.612 183.554L75.102 182.474H105.072V188.414H70.836ZM91.572 197V188.414L91.788 182.474V174.86H98.376V197H91.572ZM112.703 197V161.9L115.781 165.086H104.711V159.2H119.723V197H112.703ZM134.782 190.574L134.944 182.096L150.01 168.164H158.11L145.312 181.016L141.748 183.986L134.782 190.574ZM129.274 197V156.932H136.024V197H129.274ZM151.036 197L140.506 183.986L144.772 178.586L159.244 197H151.036ZM170.925 190.25V165.95H176.703V190.25H170.925ZM161.367 180.8V175.4H186.261V180.8H161.367Z" fill="white"/>
<path d="M79.128 210.8H80.92C80.728 211.088 79.304 214.272 76.008 222H74.152C70.92 214.272 69.624 211.088 69.432 210.8H71.192L75.128 220.688L79.128 210.8ZM83.4394 211.488C82.6234 211.488 82.3354 211.024 82.3354 210.432C82.3354 209.84 82.6234 209.376 83.4394 209.376C84.2554 209.376 84.5274 209.84 84.5274 210.432C84.5274 211.024 84.2554 211.488 83.4394 211.488ZM82.6554 222C82.7034 221.744 82.7194 219.664 82.7194 217.536C82.7194 215.376 82.7034 213.296 82.6554 213.04H84.1914C84.1594 213.296 84.1274 215.376 84.1274 217.536C84.1274 219.664 84.1594 221.744 84.1914 222H82.6554ZM90.9564 222.176C88.3004 222.176 86.5244 221.456 86.5244 219.616C86.5244 219.44 86.5404 219.232 86.5564 219.104H88.0124V219.632C88.0124 220.4 88.6204 220.944 90.9724 220.944C93.6764 220.944 94.2044 220.384 94.2044 219.344C94.2044 218.544 93.8204 218.192 92.8924 218.144L89.4204 217.904C87.6604 217.808 86.7644 217.168 86.7644 215.584C86.7644 213.536 88.2524 212.864 90.9884 212.864C93.8364 212.864 95.2924 213.504 95.2924 215.216C95.2924 215.344 95.2764 215.616 95.2604 215.76H93.8684C93.8844 215.616 93.8844 215.488 93.8844 215.408C93.8844 214.384 93.1964 214.064 90.9884 214.064C88.9244 214.064 88.1884 214.448 88.1884 215.52C88.1884 216.32 88.6044 216.688 89.6604 216.736L93.2124 216.992C94.8284 217.088 95.6444 217.68 95.6444 219.248C95.6444 221.136 94.4764 222.176 90.9564 222.176ZM98.7206 211.488C97.9046 211.488 97.6166 211.024 97.6166 210.432C97.6166 209.84 97.9046 209.376 98.7206 209.376C99.5366 209.376 99.8086 209.84 99.8086 210.432C99.8086 211.024 99.5366 211.488 98.7206 211.488ZM97.9366 222C97.9846 221.744 98.0006 219.664 98.0006 217.536C98.0006 215.376 97.9846 213.296 97.9366 213.04H99.4726C99.4406 213.296 99.4086 215.376 99.4086 217.536C99.4086 219.664 99.4406 221.744 99.4726 222H97.9366ZM107.23 220.448L107.438 221.568C106.494 221.952 105.614 222.112 104.958 222.112C103.582 222.112 102.814 221.328 102.846 220.08C102.846 219.936 102.894 218.928 102.894 216.352V214.336H101.438L101.422 213.152H102.894C102.878 212.064 102.878 211.2 102.846 211.136L104.318 211.072V213.152H107.278L107.246 214.336H104.318V219.792C104.318 220.544 104.622 220.832 105.422 220.832C105.886 220.832 106.494 220.704 107.23 220.448ZM113.775 222.176C110.463 222.176 108.943 220.432 108.943 217.52C108.943 214.608 110.463 212.864 113.775 212.864C117.071 212.864 118.607 214.608 118.607 217.52C118.607 220.432 117.071 222.176 113.775 222.176ZM113.775 220.88C115.951 220.88 117.151 219.84 117.151 218.208V216.8C117.151 215.184 115.919 214.144 113.775 214.144C111.583 214.144 110.399 215.2 110.399 216.8V218.208C110.399 219.84 111.615 220.88 113.775 220.88ZM125.66 212.864C125.98 212.864 126.476 212.88 126.812 212.912L126.588 214.272C126.348 214.224 125.692 214.192 125.34 214.192C124.236 214.192 122.892 214.464 122.268 215.84V222H120.796C120.844 221.744 120.86 219.68 120.86 217.536C120.86 215.392 120.844 213.296 120.796 213.04H121.884L122.172 214.336C123.004 213.2 124.316 212.864 125.66 212.864ZM132.503 222.176C129.847 222.176 128.071 221.456 128.071 219.616C128.071 219.44 128.087 219.232 128.103 219.104H129.559V219.632C129.559 220.4 130.167 220.944 132.519 220.944C135.223 220.944 135.751 220.384 135.751 219.344C135.751 218.544 135.367 218.192 134.439 218.144L130.967 217.904C129.207 217.808 128.311 217.168 128.311 215.584C128.311 213.536 129.799 212.864 132.535 212.864C135.383 212.864 136.839 213.504 136.839 215.216C136.839 215.344 136.823 215.616 136.807 215.76H135.415C135.431 215.616 135.431 215.488 135.431 215.408C135.431 214.384 134.743 214.064 132.535 214.064C130.471 214.064 129.735 214.448 129.735 215.52C129.735 216.32 130.151 216.688 131.207 216.736L134.759 216.992C136.375 217.088 137.191 217.68 137.191 219.248C137.191 221.136 136.023 222.176 132.503 222.176Z" fill="#FA4616"/>
<path d="M487.856 339.688L487.872 341H479.312C479.392 340.744 479.392 338.088 479.392 335.4C479.392 332.712 479.392 330.056 479.312 329.8H487.792L487.776 331.112H480.864V334.632H486.736V335.944H480.864V339.688H487.856ZM498.66 341H496.9L493.94 337.112L490.996 341H489.268C489.524 340.744 490.532 339.432 492.9 336.344C490.66 333.496 489.748 332.312 489.492 332.04H491.188L493.908 335.608L496.58 332.04H498.244C497.988 332.296 497.124 333.48 494.932 336.328C497.348 339.432 498.372 340.744 498.66 341ZM509.502 341H508.03V335.304C508.03 333.8 507.294 333.112 505.614 333.112C504.318 333.112 502.99 333.64 502.222 334.136V341H500.75C500.798 340.744 500.798 337.88 500.798 334.984C500.798 332.088 500.798 329.224 500.75 328.968H502.222V333C503.118 332.392 504.318 331.864 505.758 331.864C508.094 331.864 509.47 332.888 509.47 335.144C509.47 335.48 509.438 336.248 509.438 337.384C509.438 338.408 509.454 340.792 509.502 341ZM512.861 330.488C512.045 330.488 511.757 330.024 511.757 329.432C511.757 328.84 512.045 328.376 512.861 328.376C513.677 328.376 513.949 328.84 513.949 329.432C513.949 330.024 513.677 330.488 512.861 330.488ZM512.077 341C512.125 340.744 512.141 338.664 512.141 336.536C512.141 334.376 512.125 332.296 512.077 332.04H513.613C513.581 332.296 513.549 334.376 513.549 336.536C513.549 338.664 513.581 340.744 513.613 341H512.077ZM520.794 331.864C524.026 331.864 525.29 333.56 525.29 336.536C525.29 339.512 523.946 341.176 520.634 341.176C519.13 341.176 516.954 341.064 516.25 341C516.298 340.744 516.298 337.896 516.298 334.984C516.298 332.088 516.298 329.224 516.25 328.968H517.722V332.504C518.378 332.2 519.37 331.864 520.794 331.864ZM523.834 337.208V335.8C523.834 334.136 522.682 333.144 520.714 333.144C519.37 333.144 518.314 333.496 517.722 333.832V339.8C518.602 339.864 519.402 339.88 520.41 339.88C522.762 339.88 523.834 338.888 523.834 337.208ZM528.283 330.488C527.467 330.488 527.179 330.024 527.179 329.432C527.179 328.84 527.467 328.376 528.283 328.376C529.099 328.376 529.371 328.84 529.371 329.432C529.371 330.024 529.099 330.488 528.283 330.488ZM527.499 341C527.547 340.744 527.563 338.664 527.563 336.536C527.563 334.376 527.547 332.296 527.499 332.04H529.035C529.003 332.296 528.971 334.376 528.971 336.536C528.971 338.664 529.003 340.744 529.035 341H527.499ZM536.792 339.448L537 340.568C536.056 340.952 535.176 341.112 534.52 341.112C533.144 341.112 532.376 340.328 532.408 339.08C532.408 338.936 532.456 337.928 532.456 335.352V333.336H531L530.984 332.152H532.456C532.44 331.064 532.44 330.2 532.408 330.136L533.88 330.072V332.152H536.84L536.808 333.336H533.88V338.792C533.88 339.544 534.184 339.832 534.984 339.832C535.448 339.832 536.056 339.704 536.792 339.448ZM543.338 341.176C540.026 341.176 538.506 339.432 538.506 336.52C538.506 333.608 540.026 331.864 543.338 331.864C546.634 331.864 548.17 333.608 548.17 336.52C548.17 339.432 546.634 341.176 543.338 341.176ZM543.338 339.88C545.514 339.88 546.714 338.84 546.714 337.208V335.8C546.714 334.184 545.482 333.144 543.338 333.144C541.146 333.144 539.962 334.2 539.962 335.8V337.208C539.962 338.84 541.178 339.88 543.338 339.88ZM555.222 331.864C555.542 331.864 556.038 331.88 556.374 331.912L556.15 333.272C555.91 333.224 555.254 333.192 554.902 333.192C553.798 333.192 552.454 333.464 551.83 334.84V341H550.358C550.406 340.744 550.422 338.68 550.422 336.536C550.422 334.392 550.406 332.296 550.358 332.04H551.446L551.734 333.336C552.566 332.2 553.878 331.864 555.222 331.864ZM562.066 341.176C559.41 341.176 557.634 340.456 557.634 338.616C557.634 338.44 557.65 338.232 557.666 338.104H559.122V338.632C559.122 339.4 559.73 339.944 562.082 339.944C564.786 339.944 565.314 339.384 565.314 338.344C565.314 337.544 564.93 337.192 564.002 337.144L560.53 336.904C558.77 336.808 557.874 336.168 557.874 334.584C557.874 332.536 559.362 331.864 562.098 331.864C564.946 331.864 566.402 332.504 566.402 334.216C566.402 334.344 566.386 334.616 566.37 334.76H564.978C564.994 334.616 564.994 334.488 564.994 334.408C564.994 333.384 564.306 333.064 562.098 333.064C560.034 333.064 559.298 333.448 559.298 334.52C559.298 335.32 559.714 335.688 560.77 335.736L564.322 335.992C565.938 336.088 566.754 336.68 566.754 338.248C566.754 340.136 565.586 341.176 562.066 341.176Z" fill="#FA4616"/>
<path d="M486.694 316L502.3 281.008L504.136 284.14H482.698L486.046 280.738V290.566H479.512V278.2H508.888V282.898L494.2 316H486.694ZM527.943 316.54C524.955 316.54 522.255 315.784 519.843 314.272C517.467 312.76 515.595 310.564 514.227 307.684C512.859 304.768 512.175 301.24 512.175 297.1C512.175 292.96 512.859 289.45 514.227 286.57C515.595 283.654 517.467 281.44 519.843 279.928C522.255 278.416 524.955 277.66 527.943 277.66C530.967 277.66 533.667 278.416 536.043 279.928C538.419 281.44 540.291 283.654 541.659 286.57C543.063 289.45 543.765 292.96 543.765 297.1C543.765 301.24 543.063 304.768 541.659 307.684C540.291 310.564 538.419 312.76 536.043 314.272C533.667 315.784 530.967 316.54 527.943 316.54ZM527.943 310.438C529.707 310.438 531.237 309.97 532.533 309.034C533.829 308.062 534.837 306.586 535.557 304.606C536.313 302.626 536.691 300.124 536.691 297.1C536.691 294.04 536.313 291.538 535.557 289.594C534.837 287.614 533.829 286.156 532.533 285.22C531.237 284.248 529.707 283.762 527.943 283.762C526.251 283.762 524.739 284.248 523.407 285.22C522.111 286.156 521.085 287.614 520.329 289.594C519.609 291.538 519.249 294.04 519.249 297.1C519.249 300.124 519.609 302.626 520.329 304.606C521.085 306.586 522.111 308.062 523.407 309.034C524.739 309.97 526.251 310.438 527.943 310.438Z" fill="white"/>
<path d="M77.424 314V278.9L80.502 282.086H69.432V276.2H84.444V314H77.424ZM91.4024 305.414V300.554L110.032 276.2H117.538L99.1784 300.554L95.6684 299.474H125.638V305.414H91.4024ZM112.138 314V305.414L112.354 299.474V291.86H118.942V314H112.138ZM144.361 314.54C141.373 314.54 138.673 313.784 136.261 312.272C133.885 310.76 132.013 308.564 130.645 305.684C129.277 302.768 128.593 299.24 128.593 295.1C128.593 290.96 129.277 287.45 130.645 284.57C132.013 281.654 133.885 279.44 136.261 277.928C138.673 276.416 141.373 275.66 144.361 275.66C147.385 275.66 150.085 276.416 152.461 277.928C154.837 279.44 156.709 281.654 158.077 284.57C159.481 287.45 160.183 290.96 160.183 295.1C160.183 299.24 159.481 302.768 158.077 305.684C156.709 308.564 154.837 310.76 152.461 312.272C150.085 313.784 147.385 314.54 144.361 314.54ZM144.361 308.438C146.125 308.438 147.655 307.97 148.951 307.034C150.247 306.062 151.255 304.586 151.975 302.606C152.731 300.626 153.109 298.124 153.109 295.1C153.109 292.04 152.731 289.538 151.975 287.594C151.255 285.614 150.247 284.156 148.951 283.22C147.655 282.248 146.125 281.762 144.361 281.762C142.669 281.762 141.157 282.248 139.825 283.22C138.529 284.156 137.503 285.614 136.747 287.594C136.027 289.538 135.667 292.04 135.667 295.1C135.667 298.124 136.027 300.626 136.747 302.606C137.503 304.586 138.529 306.062 139.825 307.034C141.157 307.97 142.669 308.438 144.361 308.438Z" fill="white"/>
<path d="M293.256 197.54C290.592 197.54 287.982 197.162 285.426 196.406C282.906 195.614 280.782 194.534 279.054 193.166L282.078 187.712C283.446 188.828 285.102 189.728 287.046 190.412C288.99 191.096 291.024 191.438 293.148 191.438C295.668 191.438 297.63 190.934 299.034 189.926C300.438 188.882 301.14 187.478 301.14 185.714C301.14 183.986 300.492 182.618 299.196 181.61C297.9 180.602 295.812 180.098 292.932 180.098H289.476V175.292L300.276 162.44L301.194 165.086H280.89V159.2H306.648V163.898L295.848 176.75L292.176 174.59H294.282C298.926 174.59 302.4 175.634 304.704 177.722C307.044 179.774 308.214 182.42 308.214 185.66C308.214 187.784 307.674 189.746 306.594 191.546C305.514 193.346 303.858 194.804 301.626 195.92C299.43 197 296.64 197.54 293.256 197.54ZM328.574 197.54C325.586 197.54 322.886 196.784 320.474 195.272C318.098 193.76 316.226 191.564 314.858 188.684C313.49 185.768 312.806 182.24 312.806 178.1C312.806 173.96 313.49 170.45 314.858 167.57C316.226 164.654 318.098 162.44 320.474 160.928C322.886 159.416 325.586 158.66 328.574 158.66C331.598 158.66 334.298 159.416 336.674 160.928C339.05 162.44 340.922 164.654 342.29 167.57C343.694 170.45 344.396 173.96 344.396 178.1C344.396 182.24 343.694 185.768 342.29 188.684C340.922 191.564 339.05 193.76 336.674 195.272C334.298 196.784 331.598 197.54 328.574 197.54ZM328.574 191.438C330.338 191.438 331.868 190.97 333.164 190.034C334.46 189.062 335.468 187.586 336.188 185.606C336.944 183.626 337.322 181.124 337.322 178.1C337.322 175.04 336.944 172.538 336.188 170.594C335.468 168.614 334.46 167.156 333.164 166.22C331.868 165.248 330.338 164.762 328.574 164.762C326.882 164.762 325.37 165.248 324.038 166.22C322.742 167.156 321.716 168.614 320.96 170.594C320.24 172.538 319.88 175.04 319.88 178.1C319.88 181.124 320.24 183.626 320.96 185.606C321.716 187.586 322.742 189.062 324.038 190.034C325.37 190.97 326.882 191.438 328.574 191.438Z" fill="white"/>
<path d="M280.6 222C280.68 221.744 280.696 219.088 280.696 216.4C280.696 213.712 280.68 211.056 280.6 210.8H282.232C282.152 211.056 282.136 213.712 282.136 216.4C282.136 219.088 282.152 221.744 282.232 222H280.6ZM293.876 222H292.404V216.304C292.404 214.8 291.684 214.112 290.004 214.112C288.692 214.112 287.348 214.656 286.58 215.168V222H285.108C285.14 221.744 285.156 219.664 285.156 217.536C285.156 215.376 285.14 213.296 285.108 213.04H286.212L286.42 214.016C287.332 213.392 288.596 212.864 290.132 212.864C292.468 212.864 293.844 213.888 293.844 216.144C293.844 216.48 293.828 217.248 293.828 218.384C293.828 219.408 293.828 221.792 293.876 222ZM303.514 213.04H305.13C304.938 213.296 303.578 216.4 301.082 222H299.45C297.018 216.4 295.722 213.296 295.53 213.04H297.114L300.314 220.816L303.514 213.04ZM310.82 212.864C313.78 212.864 315.396 214.304 315.364 216.64C315.364 217.072 315.332 217.52 315.252 218.08H307.54V218.192C307.54 219.808 308.596 220.88 311.076 220.88C312.324 220.88 313.572 220.592 314.74 220.144L315.108 221.216C314.516 221.52 313.012 222.176 311.028 222.176C307.764 222.176 306.084 220.576 306.084 217.568C306.084 214.592 307.62 212.864 310.82 212.864ZM313.988 216.672C314.052 214.944 312.836 214.144 310.772 214.144C308.564 214.144 307.636 215.104 307.556 216.96H313.972L313.988 216.672ZM321.816 222.176C319.16 222.176 317.384 221.456 317.384 219.616C317.384 219.44 317.4 219.232 317.416 219.104H318.872V219.632C318.872 220.4 319.48 220.944 321.832 220.944C324.536 220.944 325.064 220.384 325.064 219.344C325.064 218.544 324.68 218.192 323.752 218.144L320.28 217.904C318.52 217.808 317.624 217.168 317.624 215.584C317.624 213.536 319.112 212.864 321.848 212.864C324.696 212.864 326.152 213.504 326.152 215.216C326.152 215.344 326.136 215.616 326.12 215.76H324.728C324.744 215.616 324.744 215.488 324.744 215.408C324.744 214.384 324.056 214.064 321.848 214.064C319.784 214.064 319.048 214.448 319.048 215.52C319.048 216.32 319.464 216.688 320.52 216.736L324.072 216.992C325.688 217.088 326.504 217.68 326.504 219.248C326.504 221.136 325.336 222.176 321.816 222.176ZM333.745 220.448L333.953 221.568C333.009 221.952 332.129 222.112 331.473 222.112C330.097 222.112 329.329 221.328 329.361 220.08C329.361 219.936 329.409 218.928 329.409 216.352V214.336H327.953L327.937 213.152H329.409C329.393 212.064 329.393 211.2 329.361 211.136L330.833 211.072V213.152H333.793L333.761 214.336H330.833V219.792C330.833 220.544 331.137 220.832 331.937 220.832C332.401 220.832 333.009 220.704 333.745 220.448ZM340.291 222.176C336.979 222.176 335.459 220.432 335.459 217.52C335.459 214.608 336.979 212.864 340.291 212.864C343.587 212.864 345.123 214.608 345.123 217.52C345.123 220.432 343.587 222.176 340.291 222.176ZM340.291 220.88C342.467 220.88 343.667 219.84 343.667 218.208V216.8C343.667 215.184 342.435 214.144 340.291 214.144C338.099 214.144 336.915 215.2 336.915 216.8V218.208C336.915 219.84 338.131 220.88 340.291 220.88ZM352.175 212.864C352.495 212.864 352.991 212.88 353.327 212.912L353.103 214.272C352.863 214.224 352.207 214.192 351.855 214.192C350.751 214.192 349.407 214.464 348.783 215.84V222H347.311C347.359 221.744 347.375 219.68 347.375 217.536C347.375 215.392 347.359 213.296 347.311 213.04H348.399L348.687 214.336C349.519 213.2 350.831 212.864 352.175 212.864ZM359.019 222.176C356.363 222.176 354.587 221.456 354.587 219.616C354.587 219.44 354.603 219.232 354.619 219.104H356.075V219.632C356.075 220.4 356.683 220.944 359.035 220.944C361.739 220.944 362.267 220.384 362.267 219.344C362.267 218.544 361.883 218.192 360.955 218.144L357.483 217.904C355.723 217.808 354.827 217.168 354.827 215.584C354.827 213.536 356.315 212.864 359.051 212.864C361.899 212.864 363.355 213.504 363.355 215.216C363.355 215.344 363.339 215.616 363.323 215.76H361.931C361.947 215.616 361.947 215.488 361.947 215.408C361.947 214.384 361.259 214.064 359.051 214.064C356.987 214.064 356.251 214.448 356.251 215.52C356.251 216.32 356.667 216.688 357.723 216.736L361.275 216.992C362.891 217.088 363.707 217.68 363.707 219.248C363.707 221.136 362.539 222.176 359.019 222.176Z" fill="#FA4616"/>
<path d="M76.2 327.8C78.52 327.8 79.704 328.888 79.704 331.64C79.704 334.392 78.52 335.48 76.2 335.48H71.864V339H70.312C70.392 338.744 70.392 336.088 70.392 333.4C70.392 330.712 70.392 328.056 70.312 327.8H76.2ZM78.2 332.312V330.984C78.2 329.592 77.64 329.096 76.12 329.096H71.864V334.184H76.168C77.656 334.184 78.2 333.688 78.2 332.312ZM86.9096 329.864C87.2296 329.864 87.7256 329.88 88.0616 329.912L87.8376 331.272C87.5976 331.224 86.9416 331.192 86.5896 331.192C85.4856 331.192 84.1416 331.464 83.5176 332.84V339H82.0456C82.0936 338.744 82.1096 336.68 82.1096 334.536C82.1096 332.392 82.0936 330.296 82.0456 330.04H83.1336L83.4216 331.336C84.2536 330.2 85.5656 329.864 86.9096 329.864ZM93.8065 339.176C90.4945 339.176 88.9745 337.432 88.9745 334.52C88.9745 331.608 90.4945 329.864 93.8065 329.864C97.1025 329.864 98.6385 331.608 98.6385 334.52C98.6385 337.432 97.1025 339.176 93.8065 339.176ZM93.8065 337.88C95.9825 337.88 97.1825 336.84 97.1825 335.208V333.8C97.1825 332.184 95.9505 331.144 93.8065 331.144C91.6145 331.144 90.4305 332.2 90.4305 333.8V335.208C90.4305 336.84 91.6465 337.88 93.8065 337.88ZM103.963 328.152C103.419 328.152 103.099 328.376 103.099 329.208V330.152H105.339L105.307 331.336H103.099V339H101.627C101.659 338.744 101.675 335.96 101.675 333.144V331.336H100.219L100.203 330.152H101.659C101.659 329.832 101.643 329.608 101.643 329.48C101.595 328.12 102.139 326.968 103.851 326.968H105.579L105.515 328.152H103.963ZM111.351 329.864C114.311 329.864 115.927 331.304 115.895 333.64C115.895 334.072 115.863 334.52 115.783 335.08H108.071V335.192C108.071 336.808 109.127 337.88 111.607 337.88C112.855 337.88 114.103 337.592 115.271 337.144L115.639 338.216C115.047 338.52 113.543 339.176 111.559 339.176C108.295 339.176 106.615 337.576 106.615 334.568C106.615 331.592 108.151 329.864 111.351 329.864ZM114.519 333.672C114.583 331.944 113.367 331.144 111.303 331.144C109.095 331.144 108.167 332.104 108.087 333.96H114.503L114.519 333.672ZM122.347 339.176C119.691 339.176 117.915 338.456 117.915 336.616C117.915 336.44 117.931 336.232 117.947 336.104H119.403V336.632C119.403 337.4 120.011 337.944 122.363 337.944C125.067 337.944 125.595 337.384 125.595 336.344C125.595 335.544 125.211 335.192 124.283 335.144L120.811 334.904C119.051 334.808 118.155 334.168 118.155 332.584C118.155 330.536 119.643 329.864 122.379 329.864C125.227 329.864 126.683 330.504 126.683 332.216C126.683 332.344 126.667 332.616 126.651 332.76H125.259C125.275 332.616 125.275 332.488 125.275 332.408C125.275 331.384 124.587 331.064 122.379 331.064C120.315 331.064 119.579 331.448 119.579 332.52C119.579 333.32 119.995 333.688 121.051 333.736L124.603 333.992C126.219 334.088 127.035 334.68 127.035 336.248C127.035 338.136 125.867 339.176 122.347 339.176ZM133.269 339.176C130.613 339.176 128.837 338.456 128.837 336.616C128.837 336.44 128.853 336.232 128.869 336.104H130.325V336.632C130.325 337.4 130.933 337.944 133.285 337.944C135.989 337.944 136.517 337.384 136.517 336.344C136.517 335.544 136.133 335.192 135.205 335.144L131.733 334.904C129.973 334.808 129.077 334.168 129.077 332.584C129.077 330.536 130.565 329.864 133.301 329.864C136.149 329.864 137.605 330.504 137.605 332.216C137.605 332.344 137.589 332.616 137.573 332.76H136.181C136.197 332.616 136.197 332.488 136.197 332.408C136.197 331.384 135.509 331.064 133.301 331.064C131.237 331.064 130.501 331.448 130.501 332.52C130.501 333.32 130.917 333.688 131.973 333.736L135.525 333.992C137.141 334.088 137.957 334.68 137.957 336.248C137.957 338.136 136.789 339.176 133.269 339.176ZM141.033 328.488C140.217 328.488 139.929 328.024 139.929 327.432C139.929 326.84 140.217 326.376 141.033 326.376C141.849 326.376 142.121 326.84 142.121 327.432C142.121 328.024 141.849 328.488 141.033 328.488ZM140.249 339C140.297 338.744 140.313 336.664 140.313 334.536C140.313 332.376 140.297 330.296 140.249 330.04H141.785C141.753 330.296 141.721 332.376 141.721 334.536C141.721 336.664 141.753 338.744 141.785 339H140.249ZM148.822 339.176C145.51 339.176 143.99 337.432 143.99 334.52C143.99 331.608 145.51 329.864 148.822 329.864C152.118 329.864 153.654 331.608 153.654 334.52C153.654 337.432 152.118 339.176 148.822 339.176ZM148.822 337.88C150.998 337.88 152.198 336.84 152.198 335.208V333.8C152.198 332.184 150.966 331.144 148.822 331.144C146.63 331.144 145.446 332.2 145.446 333.8V335.208C145.446 336.84 146.662 337.88 148.822 337.88ZM164.611 339H163.139V333.304C163.139 331.8 162.419 331.112 160.739 331.112C159.427 331.112 158.083 331.656 157.315 332.168V339H155.843C155.875 338.744 155.891 336.664 155.891 334.536C155.891 332.376 155.875 330.296 155.843 330.04H156.947L157.155 331.016C158.067 330.392 159.331 329.864 160.867 329.864C163.203 329.864 164.579 330.888 164.579 333.144C164.579 333.48 164.562 334.248 164.562 335.384C164.562 336.408 164.562 338.792 164.611 339ZM175.859 330.36C175.811 330.616 175.779 332.36 175.779 334.52C175.779 336.68 175.811 338.744 175.859 339H174.723L174.515 338.248C173.683 338.712 172.515 339.176 170.995 339.176C168.147 339.176 166.803 337.416 166.803 334.504C166.803 331.592 168.099 329.864 171.235 329.864C173.315 329.864 174.691 330.12 175.859 330.36ZM168.259 335.208C168.259 336.872 169.347 337.88 171.395 337.88C172.579 337.88 173.555 337.64 174.371 337.32V331.448C173.603 331.304 172.707 331.144 171.283 331.144C169.315 331.144 168.259 332.184 168.259 333.8V335.208ZM178.485 339C178.517 338.744 178.549 335.88 178.549 332.984C178.549 330.088 178.517 327.224 178.485 326.968H180.021C179.989 327.224 179.957 330.088 179.957 332.984C179.957 335.88 179.989 338.744 180.021 339H178.485ZM83.992 343.8C83.912 344.056 83.896 346.712 83.896 349.4C83.896 352.088 83.912 354.744 83.992 355H82.44V346.04L77.384 354.36H76.92L71.864 346.088V355H70.312C70.392 354.744 70.392 352.088 70.392 349.4C70.392 346.712 70.392 344.056 70.312 343.8H72.056L77.16 352.152L82.248 343.8H83.992ZM90.9449 345.864C93.9049 345.864 95.5209 347.304 95.4889 349.64C95.4889 350.072 95.4569 350.52 95.3769 351.08H87.6649V351.192C87.6649 352.808 88.7209 353.88 91.2009 353.88C92.4489 353.88 93.6969 353.592 94.8649 353.144L95.2329 354.216C94.6409 354.52 93.1369 355.176 91.1529 355.176C87.8889 355.176 86.2089 353.576 86.2089 350.568C86.2089 347.592 87.7449 345.864 90.9449 345.864ZM94.1129 349.672C94.1769 347.944 92.9609 347.144 90.8969 347.144C88.6889 347.144 87.7609 348.104 87.6809 349.96H94.0969L94.1129 349.672ZM102.117 345.864C105.077 345.864 106.693 347.304 106.661 349.64C106.661 350.072 106.629 350.52 106.549 351.08H98.8368V351.192C98.8368 352.808 99.8928 353.88 102.373 353.88C103.621 353.88 104.869 353.592 106.037 353.144L106.405 354.216C105.813 354.52 104.309 355.176 102.325 355.176C99.0608 355.176 97.3808 353.576 97.3808 350.568C97.3808 347.592 98.9168 345.864 102.117 345.864ZM105.285 349.672C105.349 347.944 104.133 347.144 102.069 347.144C99.8608 347.144 98.9328 348.104 98.8528 349.96H105.269L105.285 349.672ZM114.105 353.448L114.313 354.568C113.369 354.952 112.489 355.112 111.833 355.112C110.457 355.112 109.689 354.328 109.721 353.08C109.721 352.936 109.769 351.928 109.769 349.352V347.336H108.313L108.297 346.152H109.769C109.753 345.064 109.753 344.2 109.721 344.136L111.193 344.072V346.152H114.153L114.121 347.336H111.193V352.792C111.193 353.544 111.497 353.832 112.297 353.832C112.761 353.832 113.369 353.704 114.105 353.448ZM117.174 344.488C116.358 344.488 116.07 344.024 116.07 343.432C116.07 342.84 116.358 342.376 117.174 342.376C117.99 342.376 118.262 342.84 118.262 343.432C118.262 344.024 117.99 344.488 117.174 344.488ZM116.39 355C116.438 354.744 116.454 352.664 116.454 350.536C116.454 348.376 116.438 346.296 116.39 346.04H117.926C117.894 346.296 117.862 348.376 117.862 350.536C117.862 352.664 117.894 354.744 117.926 355H116.39ZM129.267 355H127.795V349.304C127.795 347.8 127.075 347.112 125.395 347.112C124.083 347.112 122.739 347.656 121.971 348.168V355H120.499C120.531 354.744 120.547 352.664 120.547 350.536C120.547 348.376 120.531 346.296 120.499 346.04H121.603L121.811 347.016C122.723 346.392 123.987 345.864 125.523 345.864C127.859 345.864 129.235 346.888 129.235 349.144C129.235 349.48 129.219 350.248 129.219 351.384C129.219 352.408 129.219 354.792 129.267 355ZM140.451 351.704C140.451 352.808 140.435 353.224 140.467 354.776C140.531 357.224 138.499 358.264 135.859 358.264C134.563 358.264 133.235 358.072 132.403 357.912L132.675 356.68C133.539 356.84 134.707 356.984 135.811 356.984C138.131 356.984 139.043 356.248 139.043 354.552V354.216C138.291 354.472 137.219 354.728 135.987 354.728C132.723 354.728 131.459 353 131.459 350.328C131.459 347.592 132.691 345.864 136.291 345.864C137.859 345.864 139.571 346.136 140.515 346.36C140.419 346.888 140.451 349.704 140.451 351.704ZM136.323 353.48C137.363 353.48 138.259 353.336 139.043 353.112V347.416C138.227 347.256 137.235 347.144 136.307 347.144C133.779 347.144 132.915 348.136 132.915 349.72V350.888C132.915 352.536 133.843 353.48 136.323 353.48ZM147.285 355.176C144.629 355.176 142.853 354.456 142.853 352.616C142.853 352.44 142.868 352.232 142.885 352.104H144.341V352.632C144.341 353.4 144.949 353.944 147.301 353.944C150.005 353.944 150.533 353.384 150.533 352.344C150.533 351.544 150.149 351.192 149.221 351.144L145.749 350.904C143.989 350.808 143.093 350.168 143.093 348.584C143.093 346.536 144.581 345.864 147.317 345.864C150.165 345.864 151.621 346.504 151.621 348.216C151.621 348.344 151.605 348.616 151.589 348.76H150.197C150.213 348.616 150.213 348.488 150.213 348.408C150.213 347.384 149.525 347.064 147.317 347.064C145.253 347.064 144.517 347.448 144.517 348.52C144.517 349.32 144.933 349.688 145.989 349.736L149.541 349.992C151.157 350.088 151.973 350.68 151.973 352.248C151.973 354.136 150.805 355.176 147.285 355.176Z" fill="#FA4616"/>
<path d="M287.424 314V278.9L290.502 282.086H279.432V276.2H294.444V314H287.424ZM301.456 314V309.302L316.468 295.046C317.728 293.858 318.664 292.814 319.276 291.914C319.888 291.014 320.284 290.186 320.464 289.43C320.68 288.638 320.788 287.9 320.788 287.216C320.788 285.488 320.194 284.156 319.006 283.22C317.818 282.248 316.072 281.762 313.768 281.762C311.932 281.762 310.258 282.086 308.746 282.734C307.27 283.382 305.992 284.372 304.912 285.704L299.998 281.924C301.474 279.944 303.454 278.414 305.938 277.334C308.458 276.218 311.266 275.66 314.362 275.66C317.098 275.66 319.474 276.11 321.49 277.01C323.542 277.874 325.108 279.116 326.188 280.736C327.304 282.356 327.862 284.282 327.862 286.514C327.862 287.738 327.7 288.962 327.376 290.186C327.052 291.374 326.44 292.634 325.54 293.966C324.64 295.298 323.326 296.792 321.598 298.448L308.692 310.706L307.234 308.06H329.32V314H301.456ZM349.14 314.54C346.152 314.54 343.452 313.784 341.04 312.272C338.664 310.76 336.792 308.564 335.424 305.684C334.056 302.768 333.372 299.24 333.372 295.1C333.372 290.96 334.056 287.45 335.424 284.57C336.792 281.654 338.664 279.44 341.04 277.928C343.452 276.416 346.152 275.66 349.14 275.66C352.164 275.66 354.864 276.416 357.24 277.928C359.616 279.44 361.488 281.654 362.856 284.57C364.26 287.45 364.962 290.96 364.962 295.1C364.962 299.24 364.26 302.768 362.856 305.684C361.488 308.564 359.616 310.76 357.24 312.272C354.864 313.784 352.164 314.54 349.14 314.54ZM349.14 308.438C350.904 308.438 352.434 307.97 353.73 307.034C355.026 306.062 356.034 304.586 356.754 302.606C357.51 300.626 357.888 298.124 357.888 295.1C357.888 292.04 357.51 289.538 356.754 287.594C356.034 285.614 355.026 284.156 353.73 283.22C352.434 282.248 350.904 281.762 349.14 281.762C347.448 281.762 345.936 282.248 344.604 283.22C343.308 284.156 342.282 285.614 341.526 287.594C340.806 289.538 340.446 292.04 340.446 295.1C340.446 298.124 340.806 300.626 341.526 302.606C342.282 304.586 343.308 306.062 344.604 307.034C345.936 307.97 347.448 308.438 349.14 308.438Z" fill="white"/>
<path d="M285.096 339.176C282.312 339.176 279.976 338.536 279.976 335.88C279.976 335.656 279.992 335.448 280.008 335.288H281.496V335.896C281.496 337.288 282.36 337.832 285.192 337.832C287.976 337.832 288.808 337.224 288.808 335.752C288.808 334.536 288.12 334.2 287.048 334.12L282.968 333.752C281.496 333.624 280.232 333.032 280.232 330.904C280.232 328.344 282.024 327.624 285.128 327.624C288.12 327.624 289.96 328.392 289.96 330.648C289.96 330.776 289.96 331 289.928 331.176H288.456V330.808C288.456 329.4 287.64 328.968 285.128 328.968C282.616 328.968 281.752 329.368 281.752 330.824C281.752 331.976 282.264 332.392 283.256 332.472L287.368 332.824C288.984 332.968 290.344 333.464 290.344 335.688C290.344 338.104 288.776 339.176 285.096 339.176ZM297.2 329.864C300.528 329.864 301.664 331.608 301.664 334.52C301.664 337.432 300.336 339.176 297.008 339.176C296.048 339.176 294.864 338.984 294.096 338.696V341.752H292.624C292.672 341.496 292.688 338.712 292.688 335.896C292.688 333.08 292.672 330.296 292.624 330.04H293.744L293.936 330.792C294.576 330.36 295.616 329.864 297.2 329.864ZM300.224 335.208V333.8C300.224 332.12 299.2 331.144 297.088 331.144C295.792 331.144 294.736 331.56 294.096 331.944V337.592C294.832 337.784 295.76 337.88 296.784 337.88C299.152 337.88 300.224 336.92 300.224 335.208ZM308.226 329.864C311.186 329.864 312.802 331.304 312.77 333.64C312.77 334.072 312.738 334.52 312.658 335.08H304.946V335.192C304.946 336.808 306.002 337.88 308.482 337.88C309.73 337.88 310.978 337.592 312.146 337.144L312.514 338.216C311.922 338.52 310.418 339.176 308.434 339.176C305.17 339.176 303.49 337.576 303.49 334.568C303.49 331.592 305.026 329.864 308.226 329.864ZM311.394 333.672C311.458 331.944 310.242 331.144 308.178 331.144C305.97 331.144 305.042 332.104 304.962 333.96H311.378L311.394 333.672ZM323.718 330.36C323.67 330.616 323.638 332.36 323.638 334.52C323.638 336.68 323.67 338.744 323.718 339H322.582L322.374 338.248C321.542 338.712 320.374 339.176 318.854 339.176C316.006 339.176 314.662 337.416 314.662 334.504C314.662 331.592 315.958 329.864 319.094 329.864C321.174 329.864 322.55 330.12 323.718 330.36ZM316.118 335.208C316.118 336.872 317.206 337.88 319.254 337.88C320.438 337.88 321.414 337.64 322.23 337.32V331.448C321.462 331.304 320.566 331.144 319.142 331.144C317.174 331.144 316.118 332.184 316.118 333.8V335.208ZM333.208 339L329.848 334.2L327.816 336.008V339H326.344C326.392 338.744 326.408 335.88 326.408 332.984C326.408 330.088 326.392 327.224 326.344 326.968H327.816V334.536L332.712 330.04H334.632C333.88 330.568 333 331.416 330.952 333.304C333.608 337.16 334.392 338.328 335 339H333.208ZM340.617 329.864C343.577 329.864 345.193 331.304 345.161 333.64C345.161 334.072 345.129 334.52 345.049 335.08H337.337V335.192C337.337 336.808 338.393 337.88 340.873 337.88C342.121 337.88 343.369 337.592 344.537 337.144L344.905 338.216C344.313 338.52 342.809 339.176 340.825 339.176C337.561 339.176 335.881 337.576 335.881 334.568C335.881 331.592 337.417 329.864 340.617 329.864ZM343.785 333.672C343.849 331.944 342.633 331.144 340.569 331.144C338.361 331.144 337.433 332.104 337.353 333.96H343.769L343.785 333.672ZM352.285 329.864C352.605 329.864 353.101 329.88 353.437 329.912L353.213 331.272C352.973 331.224 352.317 331.192 351.965 331.192C350.861 331.192 349.517 331.464 348.893 332.84V339H347.421C347.469 338.744 347.485 336.68 347.485 334.536C347.485 332.392 347.469 330.296 347.421 330.04H348.509L348.797 331.336C349.629 330.2 350.941 329.864 352.285 329.864ZM359.128 339.176C356.472 339.176 354.696 338.456 354.696 336.616C354.696 336.44 354.712 336.232 354.728 336.104H356.184V336.632C356.184 337.4 356.792 337.944 359.144 337.944C361.848 337.944 362.376 337.384 362.376 336.344C362.376 335.544 361.992 335.192 361.064 335.144L357.592 334.904C355.832 334.808 354.936 334.168 354.936 332.584C354.936 330.536 356.424 329.864 359.16 329.864C362.008 329.864 363.464 330.504 363.464 332.216C363.464 332.344 363.448 332.616 363.432 332.76H362.04C362.056 332.616 362.056 332.488 362.056 332.408C362.056 331.384 361.368 331.064 359.16 331.064C357.096 331.064 356.36 331.448 356.36 332.52C356.36 333.32 356.776 333.688 357.832 333.736L361.384 333.992C363 334.088 363.816 334.68 363.816 336.248C363.816 338.136 362.648 339.176 359.128 339.176Z" fill="#FA4616"/>
<path d="M491.704 222L490.632 219.392H484.216L483.16 222H481.448C481.64 221.744 482.76 219.088 483.88 216.4C485 213.712 486.088 211.056 486.152 210.8H488.712C488.776 211.056 489.848 213.712 490.984 216.4C492.104 219.088 493.208 221.744 493.416 222H491.704ZM484.76 218.08H490.104L487.672 212.112H487.192L484.76 218.08ZM503.295 218.704C503.295 219.808 503.279 220.224 503.311 221.776C503.375 224.224 501.343 225.264 498.703 225.264C497.407 225.264 496.079 225.072 495.247 224.912L495.519 223.68C496.383 223.84 497.551 223.984 498.655 223.984C500.975 223.984 501.887 223.248 501.887 221.552V221.216C501.135 221.472 500.063 221.728 498.831 221.728C495.567 221.728 494.303 220 494.303 217.328C494.303 214.592 495.535 212.864 499.135 212.864C500.703 212.864 502.415 213.136 503.359 213.36C503.263 213.888 503.295 216.704 503.295 218.704ZM499.167 220.48C500.207 220.48 501.103 220.336 501.887 220.112V214.416C501.071 214.256 500.079 214.144 499.151 214.144C496.623 214.144 495.759 215.136 495.759 216.72V217.888C495.759 219.536 496.687 220.48 499.167 220.48ZM510.8 212.864C511.12 212.864 511.616 212.88 511.952 212.912L511.728 214.272C511.488 214.224 510.832 214.192 510.48 214.192C509.376 214.192 508.032 214.464 507.408 215.84V222H505.936C505.984 221.744 506 219.68 506 217.536C506 215.392 505.984 213.296 505.936 213.04H507.024L507.312 214.336C508.144 213.2 509.456 212.864 510.8 212.864ZM517.601 212.864C520.561 212.864 522.177 214.304 522.145 216.64C522.145 217.072 522.113 217.52 522.033 218.08H514.321V218.192C514.321 219.808 515.377 220.88 517.857 220.88C519.105 220.88 520.353 220.592 521.521 220.144L521.889 221.216C521.297 221.52 519.793 222.176 517.809 222.176C514.545 222.176 512.865 220.576 512.865 217.568C512.865 214.592 514.401 212.864 517.601 212.864ZM520.769 216.672C520.833 214.944 519.617 214.144 517.553 214.144C515.345 214.144 514.417 215.104 514.337 216.96H520.753L520.769 216.672ZM528.773 212.864C531.733 212.864 533.349 214.304 533.317 216.64C533.317 217.072 533.285 217.52 533.205 218.08H525.493V218.192C525.493 219.808 526.549 220.88 529.029 220.88C530.277 220.88 531.525 220.592 532.693 220.144L533.061 221.216C532.469 221.52 530.965 222.176 528.981 222.176C525.717 222.176 524.037 220.576 524.037 217.568C524.037 214.592 525.573 212.864 528.773 212.864ZM531.941 216.672C532.005 214.944 530.789 214.144 528.725 214.144C526.517 214.144 525.589 215.104 525.509 216.96H531.925L531.941 216.672ZM549.833 222H548.377V216.304C548.377 214.784 547.657 214.112 546.153 214.112C545.193 214.112 544.137 214.464 543.417 214.864V222H542.025V215.888C542.025 214.72 541.321 214.112 539.817 214.112C538.857 214.112 537.769 214.48 537.049 214.944V222H535.577C535.609 221.744 535.625 219.664 535.625 217.536C535.625 215.376 535.609 213.296 535.577 213.04H536.697L536.905 213.872C537.753 213.28 538.809 212.864 540.041 212.864C541.513 212.864 542.377 213.36 542.921 214.016C543.785 213.376 544.889 212.864 546.329 212.864C548.473 212.864 549.801 213.888 549.801 216.144C549.801 216.48 549.785 217.248 549.785 218.384C549.785 219.408 549.801 221.792 549.833 222ZM556.757 212.864C559.717 212.864 561.333 214.304 561.301 216.64C561.301 217.072 561.269 217.52 561.189 218.08H553.477V218.192C553.477 219.808 554.533 220.88 557.013 220.88C558.261 220.88 559.509 220.592 560.677 220.144L561.045 221.216C560.453 221.52 558.949 222.176 556.965 222.176C553.701 222.176 552.021 220.576 552.021 217.568C552.021 214.592 553.557 212.864 556.757 212.864ZM559.925 216.672C559.989 214.944 558.773 214.144 556.709 214.144C554.501 214.144 553.573 215.104 553.493 216.96H559.909L559.925 216.672ZM572.329 222H570.857V216.304C570.857 214.8 570.137 214.112 568.457 214.112C567.145 214.112 565.801 214.656 565.033 215.168V222H563.561C563.593 221.744 563.609 219.664 563.609 217.536C563.609 215.376 563.593 213.296 563.561 213.04H564.665L564.873 214.016C565.785 213.392 567.049 212.864 568.585 212.864C570.921 212.864 572.297 213.888 572.297 216.144C572.297 216.48 572.281 217.248 572.281 218.384C572.281 219.408 572.281 221.792 572.329 222ZM579.948 220.448L580.156 221.568C579.212 221.952 578.332 222.112 577.676 222.112C576.3 222.112 575.532 221.328 575.564 220.08C575.564 219.936 575.612 218.928 575.612 216.352V214.336H574.156L574.14 213.152H575.612C575.596 212.064 575.596 211.2 575.564 211.136L577.036 211.072V213.152H579.996L579.964 214.336H577.036V219.792C577.036 220.544 577.34 220.832 578.14 220.832C578.604 220.832 579.212 220.704 579.948 220.448ZM586.41 222.176C583.754 222.176 581.978 221.456 581.978 219.616C581.978 219.44 581.993 219.232 582.01 219.104H583.466V219.632C583.466 220.4 584.074 220.944 586.426 220.944C589.13 220.944 589.658 220.384 589.658 219.344C589.658 218.544 589.274 218.192 588.346 218.144L584.874 217.904C583.114 217.808 582.218 217.168 582.218 215.584C582.218 213.536 583.706 212.864 586.442 212.864C589.29 212.864 590.746 213.504 590.746 215.216C590.746 215.344 590.73 215.616 590.714 215.76H589.322C589.338 215.616 589.338 215.488 589.338 215.408C589.338 214.384 588.65 214.064 586.442 214.064C584.378 214.064 583.642 214.448 583.642 215.52C583.642 216.32 584.058 216.688 585.114 216.736L588.666 216.992C590.282 217.088 591.098 217.68 591.098 219.248C591.098 221.136 589.93 222.176 586.41 222.176ZM602.143 222.176C599.359 222.176 597.023 221.536 597.023 218.88C597.023 218.656 597.039 218.448 597.055 218.288H598.543V218.896C598.543 220.288 599.407 220.832 602.239 220.832C605.023 220.832 605.855 220.224 605.855 218.752C605.855 217.536 605.167 217.2 604.095 217.12L600.015 216.752C598.543 216.624 597.279 216.032 597.279 213.904C597.279 211.344 599.071 210.624 602.175 210.624C605.167 210.624 607.007 211.392 607.007 213.648C607.007 213.776 607.007 214 606.975 214.176H605.503V213.808C605.503 212.4 604.687 211.968 602.175 211.968C599.663 211.968 598.799 212.368 598.799 213.824C598.799 214.976 599.311 215.392 600.303 215.472L604.415 215.824C606.031 215.968 607.391 216.464 607.391 218.688C607.391 221.104 605.823 222.176 602.143 222.176ZM610.471 211.488C609.655 211.488 609.367 211.024 609.367 210.432C609.367 209.84 609.655 209.376 610.471 209.376C611.287 209.376 611.559 209.84 611.559 210.432C611.559 211.024 611.287 211.488 610.471 211.488ZM609.687 222C609.735 221.744 609.751 219.664 609.751 217.536C609.751 215.376 609.735 213.296 609.687 213.04H611.223C611.191 213.296 611.159 215.376 611.159 217.536C611.159 219.664 611.191 221.744 611.223 222H609.687ZM622.42 218.704C622.42 219.808 622.404 220.224 622.436 221.776C622.5 224.224 620.468 225.264 617.828 225.264C616.532 225.264 615.204 225.072 614.372 224.912L614.644 223.68C615.508 223.84 616.676 223.984 617.78 223.984C620.1 223.984 621.012 223.248 621.012 221.552V221.216C620.26 221.472 619.188 221.728 617.956 221.728C614.692 221.728 613.428 220 613.428 217.328C613.428 214.592 614.66 212.864 618.26 212.864C619.828 212.864 621.54 213.136 622.484 213.36C622.388 213.888 622.42 216.704 622.42 218.704ZM618.292 220.48C619.332 220.48 620.228 220.336 621.012 220.112V214.416C620.196 214.256 619.204 214.144 618.276 214.144C615.748 214.144 614.884 215.136 614.884 216.72V217.888C614.884 219.536 615.812 220.48 618.292 220.48ZM633.829 222H632.357V216.304C632.357 214.8 631.637 214.112 629.957 214.112C628.645 214.112 627.301 214.656 626.533 215.168V222H625.061C625.093 221.744 625.109 219.664 625.109 217.536C625.109 215.376 625.093 213.296 625.061 213.04H626.165L626.373 214.016C627.285 213.392 628.549 212.864 630.085 212.864C632.421 212.864 633.797 213.888 633.797 216.144C633.797 216.48 633.781 217.248 633.781 218.384C633.781 219.408 633.781 221.792 633.829 222ZM640.757 212.864C643.717 212.864 645.333 214.304 645.301 216.64C645.301 217.072 645.269 217.52 645.189 218.08H637.477V218.192C637.477 219.808 638.533 220.88 641.013 220.88C642.261 220.88 643.509 220.592 644.677 220.144L645.045 221.216C644.453 221.52 642.949 222.176 640.965 222.176C637.701 222.176 636.021 220.576 636.021 217.568C636.021 214.592 637.557 212.864 640.757 212.864ZM643.925 216.672C643.989 214.944 642.773 214.144 640.709 214.144C638.501 214.144 637.573 215.104 637.493 216.96H643.909L643.925 216.672ZM656.249 209.968C656.201 210.224 656.185 213.088 656.185 215.984C656.185 218.88 656.201 221.744 656.249 222H655.129L654.937 221.264C654.137 221.728 653.001 222.176 651.577 222.176C648.633 222.176 647.193 220.448 647.193 217.456C647.193 214.592 648.409 212.864 651.769 212.864C653.129 212.864 654.121 213.12 654.777 213.312V209.968H656.249ZM648.649 218.208C648.649 220.016 649.929 220.88 651.913 220.88C653.049 220.88 653.993 220.64 654.777 220.336V214.528C654.041 214.32 653.081 214.144 651.897 214.144C649.705 214.144 648.649 215.088 648.649 216.8V218.208Z" fill="#FA4616"/>
<path d="M499.144 195.54C496.156 195.54 493.456 194.784 491.044 193.272C488.668 191.76 486.796 189.564 485.428 186.684C484.06 183.768 483.376 180.24 483.376 176.1C483.376 171.96 484.06 168.45 485.428 165.57C486.796 162.654 488.668 160.44 491.044 158.928C493.456 157.416 496.156 156.66 499.144 156.66C502.168 156.66 504.868 157.416 507.244 158.928C509.62 160.44 511.492 162.654 512.86 165.57C514.264 168.45 514.966 171.96 514.966 176.1C514.966 180.24 514.264 183.768 512.86 186.684C511.492 189.564 509.62 191.76 507.244 193.272C504.868 194.784 502.168 195.54 499.144 195.54ZM499.144 189.438C500.908 189.438 502.438 188.97 503.734 188.034C505.03 187.062 506.038 185.586 506.758 183.606C507.514 181.626 507.892 179.124 507.892 176.1C507.892 173.04 507.514 170.538 506.758 168.594C506.038 166.614 505.03 165.156 503.734 164.22C502.438 163.248 500.908 162.762 499.144 162.762C497.452 162.762 495.94 163.248 494.608 164.22C493.312 165.156 492.286 166.614 491.53 168.594C490.81 170.538 490.45 173.04 490.45 176.1C490.45 179.124 490.81 181.626 491.53 183.606C492.286 185.586 493.312 187.062 494.608 188.034C495.94 188.97 497.452 189.438 499.144 189.438ZM532.238 195.54C529.574 195.54 526.964 195.162 524.408 194.406C521.888 193.614 519.764 192.534 518.036 191.166L521.006 185.712C522.374 186.828 524.03 187.728 525.974 188.412C527.954 189.096 530.006 189.438 532.13 189.438C534.614 189.438 536.558 188.916 537.962 187.872C539.402 186.828 540.122 185.424 540.122 183.66C540.122 182.472 539.816 181.428 539.204 180.528C538.628 179.628 537.584 178.944 536.072 178.476C534.596 178.008 532.562 177.774 529.97 177.774H520.844L522.788 157.2H544.982V163.086H525.38L529.052 159.738L527.594 175.128L523.922 171.834H531.536C535.28 171.834 538.286 172.338 540.554 173.346C542.858 174.318 544.532 175.686 545.576 177.45C546.656 179.178 547.196 181.158 547.196 183.39C547.196 185.586 546.656 187.602 545.576 189.438C544.496 191.274 542.84 192.75 540.608 193.866C538.412 194.982 535.622 195.54 532.238 195.54Z" fill="white"/>
<path d="M1402.77 275.58L1407.8 270.553L1402.77 265.526L1408.38 259.919L1413.41 264.946L1418.43 259.919L1424.04 265.526L1419.01 270.553L1424.04 275.58L1418.43 281.188L1413.41 276.161L1408.38 281.188L1402.77 275.58Z" fill="#FA4616"/>
<path d="M1099.77 344.58L1104.8 339.553L1099.77 334.526L1105.38 328.919L1110.41 333.946L1115.43 328.919L1121.04 334.526L1116.01 339.553L1121.04 344.58L1115.43 350.188L1110.41 345.161L1105.38 350.188L1099.77 344.58Z" fill="white"/>
<mask id="path-19-outside-1_267_139" maskUnits="userSpaceOnUse" x="1349.65" y="121.151" width="87.5912" height="87.7712" fill="black">
<rect fill="white" x="1349.65" y="121.151" width="87.5912" height="87.7712"/>
<path d="M1406.4 192.464L1393.48 179.523L1380.57 192.464L1366.17 178.03L1379.08 165.09L1366.17 152.15L1380.57 137.717L1393.48 150.657L1406.4 137.717L1420.8 152.15L1407.89 165.09L1420.8 178.03L1406.4 192.464Z"/>
</mask>
<path d="M1406.4 192.464L1404.99 193.879L1406.4 195.295L1407.81 193.879L1406.4 192.464ZM1393.48 179.523L1394.9 178.108L1393.48 176.692L1392.07 178.108L1393.48 179.523ZM1380.57 192.464L1379.16 193.879L1380.57 195.295L1381.98 193.879L1380.57 192.464ZM1366.17 178.03L1364.76 176.615L1363.34 178.03L1364.76 179.446L1366.17 178.03ZM1379.08 165.09L1380.49 166.506L1381.91 165.09L1380.49 163.675L1379.08 165.09ZM1366.17 152.15L1364.76 150.735L1363.34 152.15L1364.76 153.566L1366.17 152.15ZM1380.57 137.717L1381.98 136.301L1380.57 134.886L1379.16 136.301L1380.57 137.717ZM1393.48 150.657L1392.07 152.073L1393.48 153.489L1394.9 152.073L1393.48 150.657ZM1406.4 137.717L1407.81 136.301L1406.4 134.886L1404.99 136.301L1406.4 137.717ZM1420.8 152.15L1422.21 153.566L1423.63 152.15L1422.21 150.735L1420.8 152.15ZM1407.89 165.09L1406.48 163.675L1405.06 165.09L1406.48 166.506L1407.89 165.09ZM1420.8 178.03L1422.21 179.446L1423.63 178.03L1422.21 176.615L1420.8 178.03ZM1407.81 191.048L1394.9 178.108L1392.07 180.939L1404.99 193.879L1407.81 191.048ZM1392.07 178.108L1379.16 191.048L1381.98 193.879L1394.9 180.939L1392.07 178.108ZM1381.98 191.048L1367.58 176.615L1364.76 179.446L1379.16 193.879L1381.98 191.048ZM1367.58 179.446L1380.49 166.506L1377.67 163.675L1364.76 176.615L1367.58 179.446ZM1380.49 163.675L1367.58 150.735L1364.76 153.566L1377.67 166.506L1380.49 163.675ZM1367.58 153.566L1381.98 139.133L1379.16 136.301L1364.76 150.735L1367.58 153.566ZM1379.16 139.133L1392.07 152.073L1394.9 149.242L1381.98 136.301L1379.16 139.133ZM1394.9 152.073L1407.81 139.133L1404.99 136.301L1392.07 149.242L1394.9 152.073ZM1404.99 139.133L1419.39 153.566L1422.21 150.735L1407.81 136.301L1404.99 139.133ZM1419.39 150.735L1406.48 163.675L1409.3 166.506L1422.21 153.566L1419.39 150.735ZM1406.48 166.506L1419.39 179.446L1422.21 176.615L1409.3 163.675L1406.48 166.506ZM1419.39 176.615L1404.99 191.048L1407.81 193.879L1422.21 179.446L1419.39 176.615Z" fill="white" mask="url(#path-19-outside-1_267_139)"/>
<path d="M739.36 285.12C738.307 285.12 737.333 284.947 736.44 284.6C735.547 284.24 734.773 283.74 734.12 283.1C733.467 282.46 732.953 281.707 732.58 280.84C732.22 279.973 732.04 279.027 732.04 278C732.04 276.973 732.22 276.027 732.58 275.16C732.953 274.293 733.467 273.54 734.12 272.9C734.787 272.26 735.567 271.767 736.46 271.42C737.353 271.06 738.327 270.88 739.38 270.88C740.393 270.88 741.347 271.053 742.24 271.4C743.133 271.733 743.887 272.24 744.5 272.92L743.56 273.86C742.987 273.273 742.353 272.853 741.66 272.6C740.967 272.333 740.22 272.2 739.42 272.2C738.58 272.2 737.8 272.347 737.08 272.64C736.36 272.92 735.733 273.327 735.2 273.86C734.667 274.38 734.247 274.993 733.94 275.7C733.647 276.393 733.5 277.16 733.5 278C733.5 278.84 733.647 279.613 733.94 280.32C734.247 281.013 734.667 281.627 735.2 282.16C735.733 282.68 736.36 283.087 737.08 283.38C737.8 283.66 738.58 283.8 739.42 283.8C740.22 283.8 740.967 283.667 741.66 283.4C742.353 283.133 742.987 282.707 743.56 282.12L744.5 283.06C743.887 283.74 743.133 284.253 742.24 284.6C741.347 284.947 740.387 285.12 739.36 285.12ZM753.779 285V282.68L753.719 282.3V278.42C753.719 277.527 753.465 276.84 752.959 276.36C752.465 275.88 751.725 275.64 750.739 275.64C750.059 275.64 749.412 275.753 748.799 275.98C748.185 276.207 747.665 276.507 747.239 276.88L746.599 275.82C747.132 275.367 747.772 275.02 748.519 274.78C749.265 274.527 750.052 274.4 750.879 274.4C752.239 274.4 753.285 274.74 754.019 275.42C754.765 276.087 755.139 277.107 755.139 278.48V285H753.779ZM750.159 285.1C749.372 285.1 748.685 284.973 748.099 284.72C747.525 284.453 747.085 284.093 746.779 283.64C746.472 283.173 746.319 282.64 746.319 282.04C746.319 281.493 746.445 281 746.699 280.56C746.965 280.107 747.392 279.747 747.979 279.48C748.579 279.2 749.379 279.06 750.379 279.06H753.999V280.12H750.419C749.405 280.12 748.699 280.3 748.299 280.66C747.912 281.02 747.719 281.467 747.719 282C747.719 282.6 747.952 283.08 748.419 283.44C748.885 283.8 749.539 283.98 750.379 283.98C751.179 283.98 751.865 283.8 752.439 283.44C753.025 283.067 753.452 282.533 753.719 281.84L754.039 282.82C753.772 283.513 753.305 284.067 752.639 284.48C751.985 284.893 751.159 285.1 750.159 285.1ZM761.816 285.1C760.949 285.1 760.129 284.98 759.356 284.74C758.582 284.487 757.976 284.173 757.536 283.8L758.176 282.68C758.602 283 759.149 283.28 759.816 283.52C760.482 283.747 761.182 283.86 761.916 283.86C762.916 283.86 763.636 283.707 764.076 283.4C764.516 283.08 764.736 282.66 764.736 282.14C764.736 281.753 764.609 281.453 764.356 281.24C764.116 281.013 763.796 280.847 763.396 280.74C762.996 280.62 762.549 280.52 762.056 280.44C761.562 280.36 761.069 280.267 760.576 280.16C760.096 280.053 759.656 279.9 759.256 279.7C758.856 279.487 758.529 279.2 758.276 278.84C758.036 278.48 757.916 278 757.916 277.4C757.916 276.827 758.076 276.313 758.396 275.86C758.716 275.407 759.182 275.053 759.796 274.8C760.422 274.533 761.182 274.4 762.076 274.4C762.756 274.4 763.436 274.493 764.116 274.68C764.796 274.853 765.356 275.087 765.796 275.38L765.176 276.52C764.709 276.2 764.209 275.973 763.676 275.84C763.142 275.693 762.609 275.62 762.076 275.62C761.129 275.62 760.429 275.787 759.976 276.12C759.536 276.44 759.316 276.853 759.316 277.36C759.316 277.76 759.436 278.073 759.676 278.3C759.929 278.527 760.256 278.707 760.656 278.84C761.069 278.96 761.516 279.06 761.996 279.14C762.489 279.22 762.976 279.32 763.456 279.44C763.949 279.547 764.396 279.7 764.796 279.9C765.209 280.087 765.536 280.36 765.776 280.72C766.029 281.067 766.156 281.527 766.156 282.1C766.156 282.713 765.982 283.247 765.636 283.7C765.302 284.14 764.809 284.487 764.156 284.74C763.516 284.98 762.736 285.1 761.816 285.1ZM774.121 274.4C774.975 274.4 775.721 274.567 776.361 274.9C777.015 275.22 777.521 275.713 777.881 276.38C778.255 277.047 778.441 277.887 778.441 278.9V285H777.021V279.04C777.021 277.933 776.741 277.1 776.181 276.54C775.635 275.967 774.861 275.68 773.861 275.68C773.115 275.68 772.461 275.833 771.901 276.14C771.355 276.433 770.928 276.867 770.621 277.44C770.328 278 770.181 278.68 770.181 279.48V285H768.761V270.16H770.181V277.38L769.901 276.84C770.235 276.08 770.768 275.487 771.501 275.06C772.235 274.62 773.108 274.4 774.121 274.4ZM787.697 285.1C786.79 285.1 785.97 284.893 785.237 284.48C784.504 284.053 783.917 283.447 783.477 282.66C783.05 281.86 782.837 280.887 782.837 279.74C782.837 278.593 783.05 277.627 783.477 276.84C783.904 276.04 784.484 275.433 785.217 275.02C785.95 274.607 786.777 274.4 787.697 274.4C788.697 274.4 789.59 274.627 790.377 275.08C791.177 275.52 791.804 276.147 792.257 276.96C792.71 277.76 792.937 278.687 792.937 279.74C792.937 280.807 792.71 281.74 792.257 282.54C791.804 283.34 791.177 283.967 790.377 284.42C789.59 284.873 788.697 285.1 787.697 285.1ZM782.277 288.88V274.5H783.637V277.66L783.497 279.76L783.697 281.88V288.88H782.277ZM787.597 283.84C788.344 283.84 789.01 283.673 789.597 283.34C790.184 282.993 790.65 282.513 790.997 281.9C791.344 281.273 791.517 280.553 791.517 279.74C791.517 278.927 791.344 278.213 790.997 277.6C790.65 276.987 790.184 276.507 789.597 276.16C789.01 275.813 788.344 275.64 787.597 275.64C786.85 275.64 786.177 275.813 785.577 276.16C784.99 276.507 784.524 276.987 784.177 277.6C783.844 278.213 783.677 278.927 783.677 279.74C783.677 280.553 783.844 281.273 784.177 281.9C784.524 282.513 784.99 282.993 785.577 283.34C786.177 283.673 786.85 283.84 787.597 283.84ZM795.832 285V274.5H797.192V277.36L797.052 276.86C797.345 276.06 797.838 275.453 798.532 275.04C799.225 274.613 800.085 274.4 801.112 274.4V275.78C801.058 275.78 801.005 275.78 800.952 275.78C800.898 275.767 800.845 275.76 800.792 275.76C799.685 275.76 798.818 276.1 798.192 276.78C797.565 277.447 797.252 278.4 797.252 279.64V285H795.832ZM803.703 285V274.5H805.123V285H803.703ZM804.423 272.18C804.129 272.18 803.883 272.08 803.683 271.88C803.483 271.68 803.383 271.44 803.383 271.16C803.383 270.88 803.483 270.647 803.683 270.46C803.883 270.26 804.129 270.16 804.423 270.16C804.716 270.16 804.963 270.253 805.163 270.44C805.363 270.627 805.463 270.86 805.463 271.14C805.463 271.433 805.363 271.68 805.163 271.88C804.976 272.08 804.729 272.18 804.423 272.18ZM807.934 285V284.06L814.934 275.2L815.234 275.68H808.054V274.5H816.354V275.42L809.374 284.3L809.014 283.82H816.494V285H807.934ZM823.573 285.1C822.479 285.1 821.519 284.873 820.693 284.42C819.866 283.953 819.219 283.32 818.753 282.52C818.286 281.707 818.053 280.78 818.053 279.74C818.053 278.7 818.273 277.78 818.713 276.98C819.166 276.18 819.779 275.553 820.553 275.1C821.339 274.633 822.219 274.4 823.193 274.4C824.179 274.4 825.053 274.627 825.813 275.08C826.586 275.52 827.193 276.147 827.633 276.96C828.073 277.76 828.293 278.687 828.293 279.74C828.293 279.807 828.286 279.88 828.273 279.96C828.273 280.027 828.273 280.1 828.273 280.18H819.133V279.12H827.513L826.953 279.54C826.953 278.78 826.786 278.107 826.453 277.52C826.133 276.92 825.693 276.453 825.133 276.12C824.573 275.787 823.926 275.62 823.193 275.62C822.473 275.62 821.826 275.787 821.253 276.12C820.679 276.453 820.233 276.92 819.913 277.52C819.593 278.12 819.433 278.807 819.433 279.58V279.8C819.433 280.6 819.606 281.307 819.953 281.92C820.313 282.52 820.806 282.993 821.433 283.34C822.073 283.673 822.799 283.84 823.613 283.84C824.253 283.84 824.846 283.727 825.393 283.5C825.953 283.273 826.433 282.927 826.833 282.46L827.633 283.38C827.166 283.94 826.579 284.367 825.873 284.66C825.179 284.953 824.413 285.1 823.573 285.1ZM834.003 285.1C833.136 285.1 832.316 284.98 831.543 284.74C830.77 284.487 830.163 284.173 829.723 283.8L830.363 282.68C830.79 283 831.336 283.28 832.003 283.52C832.67 283.747 833.37 283.86 834.103 283.86C835.103 283.86 835.823 283.707 836.263 283.4C836.703 283.08 836.923 282.66 836.923 282.14C836.923 281.753 836.796 281.453 836.543 281.24C836.303 281.013 835.983 280.847 835.583 280.74C835.183 280.62 834.736 280.52 834.243 280.44C833.75 280.36 833.256 280.267 832.763 280.16C832.283 280.053 831.843 279.9 831.443 279.7C831.043 279.487 830.716 279.2 830.463 278.84C830.223 278.48 830.103 278 830.103 277.4C830.103 276.827 830.263 276.313 830.583 275.86C830.903 275.407 831.37 275.053 831.983 274.8C832.61 274.533 833.37 274.4 834.263 274.4C834.943 274.4 835.623 274.493 836.303 274.68C836.983 274.853 837.543 275.087 837.983 275.38L837.363 276.52C836.896 276.2 836.396 275.973 835.863 275.84C835.33 275.693 834.796 275.62 834.263 275.62C833.316 275.62 832.616 275.787 832.163 276.12C831.723 276.44 831.503 276.853 831.503 277.36C831.503 277.76 831.623 278.073 831.863 278.3C832.116 278.527 832.443 278.707 832.843 278.84C833.256 278.96 833.703 279.06 834.183 279.14C834.676 279.22 835.163 279.32 835.643 279.44C836.136 279.547 836.583 279.7 836.983 279.9C837.396 280.087 837.723 280.36 837.963 280.72C838.216 281.067 838.343 281.527 838.343 282.1C838.343 282.713 838.17 283.247 837.823 283.7C837.49 284.14 836.996 284.487 836.343 284.74C835.703 284.98 834.923 285.1 834.003 285.1ZM849.203 285V272.28H844.283V271H855.603V272.28H850.683V285H849.203ZM860.854 285.1C859.84 285.1 858.927 284.873 858.114 284.42C857.314 283.953 856.68 283.32 856.214 282.52C855.747 281.707 855.514 280.78 855.514 279.74C855.514 278.687 855.747 277.76 856.214 276.96C856.68 276.16 857.314 275.533 858.114 275.08C858.914 274.627 859.827 274.4 860.854 274.4C861.894 274.4 862.814 274.627 863.614 275.08C864.427 275.533 865.06 276.16 865.514 276.96C865.98 277.76 866.214 278.687 866.214 279.74C866.214 280.78 865.98 281.707 865.514 282.52C865.06 283.32 864.427 283.953 863.614 284.42C862.8 284.873 861.88 285.1 860.854 285.1ZM860.854 283.84C861.614 283.84 862.287 283.673 862.874 283.34C863.46 282.993 863.92 282.513 864.254 281.9C864.6 281.273 864.774 280.553 864.774 279.74C864.774 278.913 864.6 278.193 864.254 277.58C863.92 276.967 863.46 276.493 862.874 276.16C862.287 275.813 861.62 275.64 860.874 275.64C860.127 275.64 859.46 275.813 858.874 276.16C858.287 276.493 857.82 276.967 857.474 277.58C857.127 278.193 856.954 278.913 856.954 279.74C856.954 280.553 857.127 281.273 857.474 281.9C857.82 282.513 858.287 282.993 858.874 283.34C859.46 283.673 860.12 283.84 860.854 283.84ZM872.433 285.1C871.446 285.1 870.686 284.833 870.153 284.3C869.619 283.767 869.353 283.013 869.353 282.04V272.18H870.773V281.96C870.773 282.573 870.926 283.047 871.233 283.38C871.553 283.713 872.006 283.88 872.593 283.88C873.219 283.88 873.739 283.7 874.153 283.34L874.653 284.36C874.373 284.613 874.033 284.8 873.633 284.92C873.246 285.04 872.846 285.1 872.433 285.1ZM867.473 275.68V274.5H873.973V275.68H867.473ZM883.818 285V282.68L883.758 282.3V278.42C883.758 277.527 883.504 276.84 882.998 276.36C882.504 275.88 881.764 275.64 880.778 275.64C880.098 275.64 879.451 275.753 878.838 275.98C878.224 276.207 877.704 276.507 877.278 276.88L876.638 275.82C877.171 275.367 877.811 275.02 878.558 274.78C879.304 274.527 880.091 274.4 880.918 274.4C882.278 274.4 883.324 274.74 884.058 275.42C884.804 276.087 885.178 277.107 885.178 278.48V285H883.818ZM880.198 285.1C879.411 285.1 878.724 284.973 878.138 284.72C877.564 284.453 877.124 284.093 876.818 283.64C876.511 283.173 876.358 282.64 876.358 282.04C876.358 281.493 876.484 281 876.738 280.56C877.004 280.107 877.431 279.747 878.018 279.48C878.618 279.2 879.418 279.06 880.418 279.06H884.038V280.12H880.458C879.444 280.12 878.738 280.3 878.338 280.66C877.951 281.02 877.758 281.467 877.758 282C877.758 282.6 877.991 283.08 878.458 283.44C878.924 283.8 879.578 283.98 880.418 283.98C881.218 283.98 881.904 283.8 882.478 283.44C883.064 283.067 883.491 282.533 883.758 281.84L884.078 282.82C883.811 283.513 883.344 284.067 882.678 284.48C882.024 284.893 881.198 285.1 880.198 285.1ZM889.035 285V270.16H890.455V285H889.035Z" fill="#FA4616"/>
<path d="M745.256 260.54C742.592 260.54 739.982 260.162 737.426 259.406C734.906 258.614 732.782 257.534 731.054 256.166L734.078 250.712C735.446 251.828 737.102 252.728 739.046 253.412C740.99 254.096 743.024 254.438 745.148 254.438C747.668 254.438 749.63 253.934 751.034 252.926C752.438 251.882 753.14 250.478 753.14 248.714C753.14 246.986 752.492 245.618 751.196 244.61C749.9 243.602 747.812 243.098 744.932 243.098H741.476V238.292L752.276 225.44L753.194 228.086H732.89V222.2H758.648V226.898L747.848 239.75L744.176 237.59H746.282C750.926 237.59 754.4 238.634 756.704 240.722C759.044 242.774 760.214 245.42 760.214 248.66C760.214 250.784 759.674 252.746 758.594 254.546C757.514 256.346 755.858 257.804 753.626 258.92C751.43 260 748.64 260.54 745.256 260.54ZM777.55 221.66C781.006 221.66 783.94 222.398 786.352 223.874C788.8 225.314 790.672 227.42 791.968 230.192C793.264 232.964 793.912 236.384 793.912 240.452C793.912 244.772 793.12 248.426 791.536 251.414C789.988 254.402 787.828 256.67 785.056 258.218C782.284 259.766 779.062 260.54 775.39 260.54C773.482 260.54 771.664 260.342 769.936 259.946C768.208 259.55 766.714 258.938 765.454 258.11L768.046 252.818C769.09 253.502 770.224 253.988 771.448 254.276C772.672 254.528 773.932 254.654 775.228 254.654C778.792 254.654 781.618 253.556 783.706 251.36C785.794 249.164 786.838 245.924 786.838 241.64C786.838 240.956 786.82 240.164 786.784 239.264C786.748 238.328 786.622 237.392 786.406 236.456L788.566 238.832C787.954 240.308 787.072 241.55 785.92 242.558C784.768 243.53 783.418 244.268 781.87 244.772C780.322 245.276 778.612 245.528 776.74 245.528C774.292 245.528 772.078 245.06 770.098 244.124C768.154 243.152 766.606 241.802 765.454 240.074C764.302 238.31 763.726 236.258 763.726 233.918C763.726 231.398 764.338 229.238 765.562 227.438C766.786 225.602 768.442 224.18 770.53 223.172C772.654 222.164 774.994 221.66 777.55 221.66ZM777.928 227.168C776.488 227.168 775.21 227.438 774.094 227.978C772.978 228.482 772.096 229.22 771.448 230.192C770.836 231.128 770.53 232.262 770.53 233.594C770.53 235.574 771.214 237.14 772.582 238.292C773.95 239.444 775.786 240.02 778.09 240.02C779.602 240.02 780.934 239.75 782.086 239.21C783.238 238.634 784.138 237.86 784.786 236.888C785.434 235.88 785.758 234.764 785.758 233.54C785.758 232.352 785.452 231.29 784.84 230.354C784.228 229.382 783.346 228.608 782.194 228.032C781.042 227.456 779.62 227.168 777.928 227.168ZM814.429 260.54C811.441 260.54 808.741 259.784 806.329 258.272C803.953 256.76 802.081 254.564 800.713 251.684C799.345 248.768 798.661 245.24 798.661 241.1C798.661 236.96 799.345 233.45 800.713 230.57C802.081 227.654 803.953 225.44 806.329 223.928C808.741 222.416 811.441 221.66 814.429 221.66C817.453 221.66 820.153 222.416 822.529 223.928C824.905 225.44 826.777 227.654 828.145 230.57C829.549 233.45 830.251 236.96 830.251 241.1C830.251 245.24 829.549 248.768 828.145 251.684C826.777 254.564 824.905 256.76 822.529 258.272C820.153 259.784 817.453 260.54 814.429 260.54ZM814.429 254.438C816.193 254.438 817.723 253.97 819.019 253.034C820.315 252.062 821.323 250.586 822.043 248.606C822.799 246.626 823.177 244.124 823.177 241.1C823.177 238.04 822.799 235.538 822.043 233.594C821.323 231.614 820.315 230.156 819.019 229.22C817.723 228.248 816.193 227.762 814.429 227.762C812.737 227.762 811.225 228.248 809.893 229.22C808.597 230.156 807.571 231.614 806.815 233.594C806.095 235.538 805.735 238.04 805.735 241.1C805.735 244.124 806.095 246.626 806.815 248.606C807.571 250.586 808.597 252.062 809.893 253.034C811.225 253.97 812.737 254.438 814.429 254.438ZM838.574 260.378C837.35 260.378 836.306 259.964 835.442 259.136C834.578 258.272 834.146 257.192 834.146 255.896C834.146 254.528 834.578 253.448 835.442 252.656C836.306 251.828 837.35 251.414 838.574 251.414C839.798 251.414 840.842 251.828 841.706 252.656C842.57 253.448 843.002 254.528 843.002 255.896C843.002 257.192 842.57 258.272 841.706 259.136C840.842 259.964 839.798 260.378 838.574 260.378ZM862.681 260.54C859.693 260.54 856.993 259.784 854.581 258.272C852.205 256.76 850.333 254.564 848.965 251.684C847.597 248.768 846.913 245.24 846.913 241.1C846.913 236.96 847.597 233.45 848.965 230.57C850.333 227.654 852.205 225.44 854.581 223.928C856.993 222.416 859.693 221.66 862.681 221.66C865.705 221.66 868.405 222.416 870.781 223.928C873.157 225.44 875.029 227.654 876.397 230.57C877.801 233.45 878.503 236.96 878.503 241.1C878.503 245.24 877.801 248.768 876.397 251.684C875.029 254.564 873.157 256.76 870.781 258.272C868.405 259.784 865.705 260.54 862.681 260.54ZM862.681 254.438C864.445 254.438 865.975 253.97 867.271 253.034C868.567 252.062 869.575 250.586 870.295 248.606C871.051 246.626 871.429 244.124 871.429 241.1C871.429 238.04 871.051 235.538 870.295 233.594C869.575 231.614 868.567 230.156 867.271 229.22C865.975 228.248 864.445 227.762 862.681 227.762C860.989 227.762 859.477 228.248 858.145 229.22C856.849 230.156 855.823 231.614 855.067 233.594C854.347 235.538 853.987 238.04 853.987 241.1C853.987 244.124 854.347 246.626 855.067 248.606C855.823 250.586 856.849 252.062 858.145 253.034C859.477 253.97 860.989 254.438 862.681 254.438ZM899.015 260.54C896.027 260.54 893.327 259.784 890.915 258.272C888.539 256.76 886.667 254.564 885.299 251.684C883.931 248.768 883.247 245.24 883.247 241.1C883.247 236.96 883.931 233.45 885.299 230.57C886.667 227.654 888.539 225.44 890.915 223.928C893.327 222.416 896.027 221.66 899.015 221.66C902.039 221.66 904.739 222.416 907.115 223.928C909.491 225.44 911.363 227.654 912.731 230.57C914.135 233.45 914.837 236.96 914.837 241.1C914.837 245.24 914.135 248.768 912.731 251.684C911.363 254.564 909.491 256.76 907.115 258.272C904.739 259.784 902.039 260.54 899.015 260.54ZM899.015 254.438C900.779 254.438 902.309 253.97 903.605 253.034C904.901 252.062 905.909 250.586 906.629 248.606C907.385 246.626 907.763 244.124 907.763 241.1C907.763 238.04 907.385 235.538 906.629 233.594C905.909 231.614 904.901 230.156 903.605 229.22C902.309 228.248 900.779 227.762 899.015 227.762C897.323 227.762 895.811 228.248 894.479 229.22C893.183 230.156 892.157 231.614 891.401 233.594C890.681 235.538 890.321 238.04 890.321 241.1C890.321 244.124 890.681 246.626 891.401 248.606C892.157 250.586 893.183 252.062 894.479 253.034C895.811 253.97 897.323 254.438 899.015 254.438ZM935.349 260.54C932.361 260.54 929.661 259.784 927.249 258.272C924.873 256.76 923.001 254.564 921.633 251.684C920.265 248.768 919.581 245.24 919.581 241.1C919.581 236.96 920.265 233.45 921.633 230.57C923.001 227.654 924.873 225.44 927.249 223.928C929.661 222.416 932.361 221.66 935.349 221.66C938.373 221.66 941.073 222.416 943.449 223.928C945.825 225.44 947.697 227.654 949.065 230.57C950.469 233.45 951.171 236.96 951.171 241.1C951.171 245.24 950.469 248.768 949.065 251.684C947.697 254.564 945.825 256.76 943.449 258.272C941.073 259.784 938.373 260.54 935.349 260.54ZM935.349 254.438C937.113 254.438 938.643 253.97 939.939 253.034C941.235 252.062 942.243 250.586 942.963 248.606C943.719 246.626 944.097 244.124 944.097 241.1C944.097 238.04 943.719 235.538 942.963 233.594C942.243 231.614 941.235 230.156 939.939 229.22C938.643 228.248 937.113 227.762 935.349 227.762C933.657 227.762 932.145 228.248 930.813 229.22C929.517 230.156 928.491 231.614 927.735 233.594C927.015 235.538 926.655 238.04 926.655 241.1C926.655 244.124 927.015 246.626 927.735 248.606C928.491 250.586 929.517 252.062 930.813 253.034C932.145 253.97 933.657 254.438 935.349 254.438ZM971.283 260V239H974.493L983.673 254.33H981.993L991.023 239H994.233L994.263 260H990.573L990.543 244.79H991.323L983.643 257.6H981.903L974.103 244.79H975.003V260H971.283ZM996.965 260L1006.42 239H1010.26L1019.74 260H1015.66L1007.53 241.07H1009.09L1000.99 260H996.965ZM1001.32 255.14L1002.37 252.08H1013.71L1014.76 255.14H1001.32ZM1022.41 260V239H1031.59C1033.87 239 1035.87 239.44 1037.59 240.32C1039.31 241.2 1040.65 242.42 1041.61 243.98C1042.57 245.54 1043.05 247.38 1043.05 249.5C1043.05 251.6 1042.57 253.44 1041.61 255.02C1040.65 256.58 1039.31 257.8 1037.59 258.68C1035.87 259.56 1033.87 260 1031.59 260H1022.41ZM1026.31 256.7H1031.41C1032.99 256.7 1034.35 256.4 1035.49 255.8C1036.65 255.2 1037.54 254.36 1038.16 253.28C1038.8 252.2 1039.12 250.94 1039.12 249.5C1039.12 248.04 1038.8 246.78 1038.16 245.72C1037.54 244.64 1036.65 243.8 1035.49 243.2C1034.35 242.6 1032.99 242.3 1031.41 242.3H1026.31V256.7Z" fill="white"/>
</g>
<defs>
<clipPath id="clip0_267_139">
<rect width="1960" height="400" fill="white"/>
</clipPath>
</defs>
</svg>
